<?xml version="1.0" standalone="no"?>
<!DOCTYPE svg PUBLIC "-//W3C//DTD SVG 1.1//EN" "http://www.w3.org/Graphics/SVG/1.1/DTD/svg11.dtd" >
<svg>
<metadata>
Created by FontForge 20090914 at Mon Sep 21 21:14:38 2020
 By www-data
Copyright(C)2010 MOTOYA CO.,LTD.
</metadata>
<defs>
<font id="Kosugi" horiz-adv-x="509" >
  <font-face 
    font-family="Kosugi"
    font-weight="400"
    font-stretch="normal"
    units-per-em="1024"
    panose-1="0 0 0 0 0 0 0 0 0 0"
    ascent="901"
    descent="-123"
    x-height="531.001"
    cap-height="774"
    bbox="-41 -223.998 854 988.001"
    underline-thickness="1"
    underline-position="-2"
    unicode-range="U+000D-U+00FF"
  />
<missing-glyph horiz-adv-x="543" 
d="M51 102h307v566h-307v-566zM0 719h410v-668h-410v668z" />
    <glyph glyph-name=".notdef" horiz-adv-x="543" 
d="M51 102h307v566h-307v-566zM0 719h410v-668h-410v668z" />
    <glyph glyph-name=".null" horiz-adv-x="0" 
 />
    <glyph glyph-name=".null" horiz-adv-x="0" 
 />
    <glyph glyph-name="nonmarkingreturn" unicode="&#xd;" horiz-adv-x="0" 
 />
    <glyph glyph-name="space" unicode=" " horiz-adv-x="276" 
 />
    <glyph glyph-name="exclam" unicode="!" horiz-adv-x="305" 
d="M156 179h32h32l1 16c0 10 0.666992 24 2 42l5 127c2.66699 52 5 104.333 7 157c3.33301 66.667 6 125.334 8 176.001l4 77h-15h-35h-46h-22l1 -16c0 -10 0.666992 -24 2 -42l5 -127c2.66699 -52 5 -104.333 7 -157c3.33301 -66.667 6 -125.334 8 -176.001zM243 4v14v32
v42v20h-14h-32h-42h-20v-14v-32v-42v-20h14h32h42h20z" />
    <glyph glyph-name="quotedbl" unicode="&#x22;" horiz-adv-x="386" 
d="M82 555h27h26l4 28l7 65l11 86l4 40h-13h-31h-41h-20l5 -40l10 -86c3.33301 -24 6 -45.667 8 -65zM272 555h27h26l4 28l7 65l10 86l4 40h-13h-31h-40h-20l5 -40l10 -86c3.33301 -24 6 -45.667 8 -65z" />
    <glyph glyph-name="numbersign" unicode="#" horiz-adv-x="460" 
d="M20 295l-2.00195 -40l-2 -41h42h41l-1 -27c-0.666992 -18 -1.66699 -38.667 -3 -62c-2 -28.667 -3.66699 -56 -5 -82l-2 -39h36h36l2 27c0.666992 18 1.66699 38.667 3 62l4 82l2 39h14h32h42h19l-1 -27c-0.666992 -18 -1.66699 -38.667 -3 -62
c-2 -28.667 -3.66699 -56 -5 -82l-2 -39h36h35l2 27c0.666992 18 1.66699 38.667 3 62c2 28.667 3.66699 56 5 82l2 39h43h43l3 41l2 40h-43h-43l2 28c0.666992 18 1.66699 39 3 63c2 29.333 3.66699 57 5 83l2 40h41h41l2 41l2 40h-40h-41l2 24
c0.666992 16 1.66699 34 3 54c1.33301 25.333 2.66602 49.333 3.99902 72l1 34h-36h-36l-1 -24c-0.666992 -16 -1.66699 -34 -3 -54c-1.33301 -25.333 -2.66602 -49.333 -3.99902 -72l-2 -34h-14h-31h-42h-20l2 24c0.666992 16 1.66699 34 3 54
c1.33301 25.333 2.66602 49.333 3.99902 72l1 34h-36h-36l-1 -24c-0.666992 -16 -1.66699 -34 -3 -54c-1.33301 -25.333 -2.66602 -49.333 -3.99902 -72l-2 -34h-44h-44l-2 -40l-3 -41h44h44l-1 -28c-1.33301 -18 -2.66602 -39 -3.99902 -63
c-1.33301 -29.333 -2.66602 -57 -3.99902 -83l-3 -40h-42h-42zM187.998 509h13.998h32h42h19l-1 -28c-1.33301 -18 -2.66602 -39 -3.99902 -63c-1.33301 -29.333 -2.66602 -57 -3.99902 -83l-3 -40h-14h-31h-42h-20l2 28c0.666992 18 1.66699 39 3 63
c2 29.333 3.66699 57 5 83z" />
    <glyph glyph-name="dollar" unicode="$" 
d="M230 78c-31.333 10.667 -55.3311 29.333 -71.998 56c-17.333 26.667 -27 61.667 -29 105h-45h-44v0v0c6 -71.333 25 -127 57 -167c31.333 -40 75.666 -64 132.999 -72v-41v-41h33h33v40v39v0v0c15.333 1.33301 29.666 3.66602 42.999 6.99902c13.333 4 26 8.66699 38 14
v0v0c36 18 63 43.667 81 77c18.667 32.667 28 73.334 28 122.001v0v0c0 28.667 -4.33301 54.334 -13 77.001c-8 23.333 -20 43.666 -36 60.999v0v0c-10 10 -23.667 20.667 -41 32c-18 12 -40 24.333 -66 37l-17 8l-17 9v34v78v102v49v0v0c25.333 -6 45.333 -20 60 -42
c15.333 -22 25.666 -52.333 30.999 -91h42h43v0v0c-4 61.333 -20.667 109.666 -50 144.999c-29.333 34.667 -71.333 55.667 -126 63v41v40h-33h-33v-40v-40v0v0c-14 -1.33301 -27.333 -3.66602 -40 -6.99902c-12.667 -2.66699 -24.334 -6.66699 -35.001 -12v0v0
c-35.333 -16 -61.666 -38.333 -78.999 -67s-26 -63.667 -26 -105v0v0c0 -38.667 11 -73 33 -103c22.667 -30.667 56.334 -57 101.001 -79l23 -11l23 -11v-40v-91v-119v-57v0v0zM296.002 351.999v-0.000976562c36 -19.333 63.333 -40.333 82 -63
c18.667 -23.333 28 -48.666 28 -75.999v0v0c0 -43.333 -9.33301 -77 -28 -101c-18.667 -23.333 -46 -37 -82 -41v52v110v83v36zM230.002 473.998l-4 1.00098l-4 2v0v0c-30.667 15.333 -53.667 33 -69 53c-15.333 19.333 -23 40.666 -23 63.999v0v0c0 32 8 57.333 24 76
c16.667 18.667 42 30.667 76 36v-30v-69v-90v-43z" />
    <glyph glyph-name="percent" unicode="%" horiz-adv-x="500" 
d="M123 781c-22 0 -40 -5.00098 -54 -15.001s-24.333 -24.667 -31 -44v0v0c-5.33301 -13.333 -9.33301 -31.666 -12 -54.999c-2 -23.333 -3 -51.666 -3 -84.999v0v0c0 -30.667 1 -57.334 3 -80.001c2.66699 -22.667 6.66699 -40.667 12 -54v0v0
c6.66699 -19.333 17 -34 31 -44s31.333 -15 52 -15v0v0c15.333 0 29 3 41 9c3.33301 1.33301 6.66602 3.33301 9.99902 6c14 10 24.667 24.667 32 44v0v0c4.66699 13.333 8.33398 31.666 11.001 54.999c2.66699 22.667 4 50 4 82v0v0c0 32.667 -1.33301 60.334 -4 83.001
s-6.33398 40.667 -11.001 54v0v0c-7.33301 19.333 -17.666 34 -30.999 44s-30 15 -50 15v0v0zM121 722.999c5.33301 0 9.66699 -1.66504 13 -4.99805c4 -2.66699 7 -7.33398 9 -14.001v0v0c2 -7.33301 4 -22 6 -44c2 -21.333 3.66699 -50 5 -86v0v0
c-2 -42.667 -5.66699 -74.334 -11 -95.001c-6 -21.333 -13.667 -32 -23 -32v0v0c-10.667 0 -18.667 11.667 -24 35c-4.66699 22.667 -7 57.334 -7 104.001v0v0c0 45.333 2.66699 79.666 8 102.999c5.33301 22.667 13.333 34 24 34v0v0zM365.001 389.001
c-16.667 0 -31.001 -2.99902 -43.001 -8.99902l-10 -6c-14 -10 -24.333 -24.667 -31 -44v0v0c-5.33301 -13.333 -9.33301 -31.666 -12 -54.999c-2 -23.333 -3 -51.666 -3 -84.999v0v0c0 -30.667 1 -57.334 3 -80.001c2.66699 -22.667 6.66699 -40.667 12 -54v0v0
c6 -19.333 16 -34 30 -44s31.667 -15 53 -15v0v0c20 0 37 5 51 15s24.667 24.667 32 44v0v0c4 13.333 7.33301 31.666 10 54.999c2.66699 22.667 4 50 4 82v0v0c0 32 -1.33301 59.333 -4 82c-2.66699 23.333 -6 41.666 -10 54.999v0v0
c-7.33301 19.333 -17.666 34 -30.999 44c-14 10 -31 15 -51 15v0v0zM363 331.002c5.33301 0 9.66699 -1.66699 13 -5c4 -2.66699 7.33301 -7.33398 10 -14.001v0v0c2 -7.33301 4 -21.666 6 -42.999c1.33301 -22 2.66602 -51.333 3.99902 -88v0v0
c-2 -42 -5.66699 -73.667 -11 -95c-5.33301 -20.667 -12.666 -31 -21.999 -31v0v0c-10.667 0 -18.667 11.667 -24 35c-4.66699 22.667 -7 57.334 -7 104.001v0v0c0 45.333 2.33301 79.666 7 102.999c5.33301 22.667 13.333 34 24 34v0v0zM117.001 4.00195l5 14
c4 8.66699 9 21 15 37l49 119l64 157l82 203l67 165l22 55l9 20h-32h-31l-27 -65l-65 -160l-43 -107l-45 -111l-36 -88l-33 -80l-46 -114l-18 -45h31h32z" />
    <glyph glyph-name="ampersand" unicode="&#x26;" horiz-adv-x="520" 
d="M178 421c-40.667 -44.667 -71.332 -87.332 -91.999 -127.999c-20.667 -40 -31 -78.667 -31 -116v0v0c0 -29.333 5.66699 -55.666 17 -78.999c11.333 -24 28 -44.667 50 -62v0v0c17.333 -13.333 36.333 -23 57 -29c20 -6.66699 42 -10 66 -10v0v0
c26.667 0 52 5.66699 76 17s46 28.333 66 51l18 -31l17 -30h42h42l-10 17c-6 11.333 -13.333 24.333 -22 39c-10.667 17.333 -20.667 34.333 -30 51l-14 24v0v0c14 28 24.333 66.333 31 115c7.33301 48 11 106.333 11 175h-36h-37v0v0c0 -44.667 -1.33301 -84.667 -4 -120
c-2 -35.333 -6 -65.666 -12 -90.999l-14 25l-34 58l-45 76l-21 36v0v0c43.333 45.333 75.666 86.666 96.999 123.999s32 70.666 32 99.999v0v0c0 49.333 -12 86.333 -36 111c-24.667 24.667 -61.667 37 -111 37v0v0c-51.333 0 -90 -12.667 -116 -38s-39 -63.333 -39 -114v0
v0c0 -22.667 4.66699 -47 14 -73c8.66699 -26.667 22 -55.334 40 -86.001l14 -24l14 -25v0v0zM210.002 510.002v0.000976562c-12 21.333 -21.333 42 -28 62s-10 39 -10 57v0v0c0 25.333 6.66699 44.333 20 57c12.667 12.667 32 19 58 19v0v0c24 0 42 -6.33301 54 -19
c12 -12 18 -30.667 18 -56v0v0c0 -18.667 -7.33301 -41.334 -22 -68.001c-15.333 -26.667 -38 -56.667 -68 -90l-11 19zM346.002 135.003v0.00195312c-14 -19.333 -29.667 -34 -47 -44s-36 -15 -56 -15v0v0c-14 0 -27.333 2.33301 -40 7
c-12.667 5.33301 -24 12.666 -34 21.999v0v0c-10 10.667 -18 23 -24 37c-5.33301 14 -8 29.667 -8 47v0v0c0 26.667 6.66699 53.667 20 81c14 27.333 34 55.666 60 84.999l17 -28l38 -66l50 -85z" />
    <glyph glyph-name="quotesingle" unicode="'" horiz-adv-x="239" 
d="M85 555h27h26l4 28l9 65l11 86l5 40h-14h-33h-43h-21l6 -40l11 -86l9 -65z" />
    <glyph glyph-name="parenleft" unicode="(" horiz-adv-x="400" 
d="M360 -30c-72 57.333 -126 121 -162 191c-36.667 70 -55 146 -55 228v0v0c0 82.667 18.333 158.667 55 228c36 70 90 133.667 162 191l-26 26l-26 26v0v0c-78.667 -69.333 -137.667 -143.333 -177 -222c-40 -78.667 -60 -161.667 -60 -249v0v0
c0 -87.333 20 -170.333 60 -249c39.333 -78.667 98.333 -152.667 177 -222l26 26l26 26v0v0z" />
    <glyph glyph-name="parenright" unicode=")" horiz-adv-x="400" 
d="M84 -82v0c78.667 69.333 137.667 143.333 177 222c40 78.667 60 161.667 60 249v0v0c0 87.333 -20 170.333 -60 249c-39.333 78.667 -98.333 152.667 -177 222l-26 -26l-26 -26v0v0c72 -57.333 126.333 -121 163 -191c36 -69.333 54 -145.333 54 -228v0v0
c0 -81.333 -18 -157 -54 -227c-36.667 -70 -91 -134 -163 -192l26 -26z" />
    <glyph glyph-name="asterisk" unicode="*" horiz-adv-x="510" 
d="M215 115h42.998h43l-4 31c-2 21.333 -4.66699 45.333 -8 72c-3.33301 33.333 -6.66602 64.666 -9.99902 93.999l-5 45l20 -18l45 -41l59 -53l28 -26l24 35l25 35l-25 13l-56 30l-74 38l-35 19l24 13l57 30l74 38l35 19l-25 35l-24 35l-20 -18l-45 -41l-59 -53l-28 -26
l3 31c2.66699 21.333 5.33398 45.333 8.00098 72l11 95l5 45h-43h-43l3 -31c2.66699 -21.333 5.33398 -45.333 8.00098 -72c3.33301 -33.333 6.66602 -65 9.99902 -95l5 -45l-20 18l-45 41l-59 53l-28 26l-25 -35l-24 -35l24 -13l57 -30l74 -38l35 -19l-25 -13l-56 -30
l-74 -38l-35 -19l24 -35l25 -35l20 18l45 41l59 53l28 26l-3 -31c-2.66699 -21.333 -5.33398 -45.333 -8.00098 -72c-3.33301 -33.333 -6.66602 -64.666 -9.99902 -93.999z" />
    <glyph glyph-name="plus" unicode="+" horiz-adv-x="495" 
d="M209 353v-50v-105v-79v-35h36h36v50v105v79v35h21h48h62h30v36v36h-21h-47h-63h-30v35v79v105v50h-36h-36v-35v-79v-105v-50h-21h-47h-63h-30v-36v-36h21h48h62h30z" />
    <glyph glyph-name="comma" unicode="," horiz-adv-x="308" 
d="M127 -82c35.333 23.333 61.999 49.3311 79.999 77.998c17.333 28.667 26 60 26 94v0v0c0 30.667 -6.33301 53.334 -19 68.001c-12 15.333 -30.667 23 -56 23v0v0c-22.667 0 -40 -5.66699 -52 -17c-11.333 -12 -17 -29.667 -17 -53v0v0
c0 -22.667 5.33301 -39.334 16 -50.001c11.333 -11.333 27.666 -17 48.999 -17v0v0h4c1.33301 0 2.33301 0.333008 3 1v0v0c2 0.666992 3.66699 1 5 1h2v0v0c2.66699 0 4.33398 -0.666992 5.00098 -2c1.33301 -1.33301 2 -3.33301 2 -6v0v0c0 -12 -5.33301 -24.333 -16 -37
c-10 -13.333 -25.333 -26.666 -46 -39.999v0v0c-2.66699 -1.33301 -5 -2.66602 -7 -3.99902c-1.33301 -1.33301 -2.66602 -2.33301 -3.99902 -3l13 -18l12 -18v0v0z" />
    <glyph glyph-name="hyphen" unicode="-" horiz-adv-x="481" 
d="M441 353v36v36h-50h-117h-56h-55h-82h-33v-36v-36h51h116h104h84h28h10z" />
    <glyph glyph-name="period" unicode="." horiz-adv-x="309" 
d="M163 109c-9.33301 0 -18.335 -1.66504 -27.002 -4.99805c-8 -2.66699 -15.667 -7.33398 -23 -14.001v0v0c-8 -7.33301 -14 -15.333 -18 -24s-6 -18.334 -6 -29.001v0v0c0 -9.33301 1.66699 -18 5 -26c2.66699 -8.66699 7.33398 -16.334 14.001 -23.001v0v0
c7.33301 -8 15.333 -14 24 -18s18.334 -6 29.001 -6v0v0c9.33301 0 18 1.66699 26 5c8.66699 2.66699 16.334 7.33398 23.001 14.001v0v0c8 6.66699 14 14.667 18 24s6 19.333 6 30v0v0c0 9.33301 -1.66699 18 -5 26c-2.66699 8 -7.33398 15.333 -14.001 22v0v0
c-7.33301 8 -15.333 14 -24 18s-18 6 -28 6v0v0z" />
    <glyph glyph-name="slash" unicode="/" horiz-adv-x="402" 
d="M357 860l-7 -16l-17 -45l-57 -141l-74 -187l-53 -131l-51 -127l-75 -190l-31 -77l34 -14l34 -14l6 16c4.66699 10.667 10.667 25.667 18 45l56 141l75 188l52 132l51 127l75 190l31 77l-34 13z" />
    <glyph glyph-name="zero" unicode="0" 
d="M265 781c-30.667 0 -57.333 -4.33496 -80 -13.002c-22.667 -9.33301 -41.667 -22.666 -57 -39.999v0v0c-26.667 -31.333 -47 -75.666 -61 -132.999c-13.333 -56.667 -20 -126.334 -20 -209.001v0v0c0 -129.333 17.667 -226.666 53 -291.999
c36 -64.667 89.667 -97 161 -97v0v0c70 0 122.667 32.667 158 98c34.667 65.333 52 163.333 52 294v0v0c0 130.667 -17.333 228.667 -52 294c-34 65.333 -85.333 98 -154 98v0v0zM256.001 699.998c39.333 0 69 -26.333 89 -79c19.333 -52 29 -130.333 29 -235v0v0
c0 -102.667 -9.66699 -179.667 -29 -231s-48.333 -77 -87 -77v0v0c-38 0 -66.333 26 -85 78c-19.333 52 -29 130 -29 234v0v0c0 103.333 9.33301 181 28 233c18.667 51.333 46.667 77 84 77v0v0z" />
    <glyph glyph-name="one" unicode="1" horiz-adv-x="349" 
d="M57 561c20.667 2.66699 41 10 61 22s39.333 29 58 51v-53v-131v-87v-91v-72v-66v-93v-37h49h48v45v114v80v88v111v107v160v65h-47h-48v0v0c-10.667 -32.667 -26 -59 -46 -79c-20.667 -19.333 -45.667 -32 -75 -38v-48v-48v0v0z" />
    <glyph glyph-name="two" unicode="2" horiz-adv-x="486" 
d="M456 11l-0.000976562 39.999v40h-41h-92h-122h-57v0v0l111 128c31.333 36.667 56 67.334 74 92.001v0v0c42.667 57.333 74.334 109.666 95.001 156.999c21.333 47.333 32 89.666 32 126.999v0v0c0 27.333 -5 52.333 -15 75s-25 43.334 -45 62.001v0v0
c-17.333 16.667 -37.333 29 -60 37s-48.334 12 -77.001 12v0v0c-64.667 0 -114.667 -19.667 -150 -59c-35.333 -38.667 -55.666 -97.334 -60.999 -176.001h20h41h31h14v0v0c3.33301 51.333 13.666 90 30.999 116c16.667 25.333 40.334 38 71.001 38v0v0c12 0 23 -2 33 -6
c10.667 -4 20.334 -10 29.001 -18v0v0c12 -11.333 21 -24.666 27 -39.999c6 -16 9 -33.667 9 -53v0v0c0 -27.333 -5.66699 -56.666 -17 -87.999c-12 -30.667 -29.333 -63 -52 -97v0v0c-26.667 -38.667 -60.334 -83.667 -101.001 -135l-145 -172v-40v-40h11h29h90h109h124h54
z" />
    <glyph glyph-name="three" unicode="3" horiz-adv-x="512" 
d="M45 219c3.33301 -74 22.332 -129.665 56.999 -166.998c34.667 -36.667 84.667 -55 150 -55v0v0c33.333 0 62.666 4.66699 87.999 14c26 10 48.333 24.333 67 43v0v0c20.667 20.667 36 44.667 46 72s15 58 15 92v0v0c0 48 -10.667 87.667 -32 119
c-20.667 31.333 -52.334 54.666 -95.001 69.999v0v0c38.667 15.333 67.334 38.666 86.001 69.999c19.333 30.667 29 68.667 29 114v0v0c0 25.333 -4 49.333 -12 72c-8 22 -19.667 42.333 -35 61v0v0c-16.667 19.333 -37 34 -61 44c-24 9.33301 -51.333 14 -82 14v0v0
c-61.333 0 -108.666 -18 -141.999 -54c-32.667 -36 -51.334 -89.667 -56.001 -161h49h49v0v0c5.33301 46.667 16 81.334 32 104.001c16.667 23.333 38.667 35 66 35v0v0c32.667 0 57 -10.333 73 -31s24 -51.667 24 -93v0v0c0 -44.667 -10 -78 -30 -100s-49.667 -33 -89 -33
v0v0c-9.33301 0 -19.666 0.333008 -30.999 1s-23.333 1.66699 -36 3v-45v-44v0v0c12.667 1.33301 24.334 2.33301 35.001 3c11.333 0.666992 21.666 1 30.999 1v0v0c44 0 77 -12 99 -36s33 -60.333 33 -109v0v0c0 -23.333 -3 -44 -9 -62
c-6 -18.667 -15.333 -35.334 -28 -50.001v0v0c-10.667 -12.667 -23 -22 -37 -28c-13.333 -6.66699 -28.666 -10 -45.999 -10v0v0c-32.667 0 -57.667 12.333 -75 37c-17.333 24 -27 60.333 -29 109h-13h-31h-41h-19v0v0z" />
    <glyph glyph-name="four" unicode="4" horiz-adv-x="505" 
d="M311 185v-23v-54v-70v-34h44h44v23v54v70v34h41h42v40v40h-42h-41v66v150v135v109v36v13h-49h-48l-23 -43l-56 -105l-38 -70l-38 -73l-80 -151l-35 -65v-41v-41h36h82h109h52zM311 627l0.000976562 -47v-107v-52v-50v-75v-31h-25h-57h-75h-35l25 47l56 107l28 52l27 50
c15.333 30 28.666 55 39.999 75z" />
    <glyph glyph-name="five" unicode="5" horiz-adv-x="493" 
d="M40 212c4.66699 -72 24.002 -126.001 58.002 -162.001c33.333 -36 81.333 -54 144 -54v0v0c73.333 0 128.333 22.333 165 67c36.667 44 55 110.667 55 200v0v0c0 40.667 -4.33301 77 -13 109c-8 32 -20.333 59.667 -37 83v0v0c-15.333 20.667 -33 36 -53 46
c-20.667 10.667 -44.334 16 -71.001 16v0v0c-27.333 0 -52.333 -6 -75 -18s-43.334 -30.333 -62.001 -55v31v72v95v45h36h83h108h52v40v40h-47h-109h-53h-51h-76h-31v-12v-32v-97v-121v-134v-59h44h44v0v0c5.33301 43.333 18 76 38 98c20 21.333 47.333 32 82 32v0v0
c32 0 56 -14.667 72 -44s24 -73.333 24 -132v0v0c0 -63.333 -10.333 -110.666 -31 -141.999s-51.334 -47 -92.001 -47v0v0c-31.333 0 -55.666 11.333 -72.999 34c-16.667 22 -26 55.667 -28 101h-13h-31h-40h-19v0v0z" />
    <glyph glyph-name="six" unicode="6" horiz-adv-x="502" 
d="M145 437c6 89.333 20.333 156.666 43 201.999c23.333 44.667 55.333 67 96 67v0v0c24 0 43.333 -10.333 58 -31c14.667 -20 24 -50.333 28 -91h48h48v0v0c-9.33301 66 -28.666 115.667 -57.999 149c-30 32.667 -70.333 49 -121 49v0v0c-80 0 -140.333 -34.667 -181 -104
c-40 -69.333 -60 -173.333 -60 -312v0v0c0 -122.667 18 -215 54 -277c36.667 -61.333 91 -92 163 -92v0v0c30 0 57 5.33301 81 16s45 26.667 63 48v0v0c21.333 24.667 37.333 54.334 48 89.001c10 34 15 73.333 15 118v0v0c0 45.333 -5 85.333 -15 120
c-10.667 34.667 -26.334 63.667 -47.001 87v0v0c-13.333 15.333 -29 27 -47 35c-18 7.33301 -38.333 11 -61 11v0v0c-30 0 -58 -7 -84 -21s-49.667 -35 -71 -63v0v0zM143 337c20 36 41.332 63 63.999 81s46.667 27 72 27v0v0c32 0 55.667 -15 71 -45s23 -75.333 23 -136v0v0
c0 -63.333 -9.33301 -111 -28 -143c-18 -32 -46 -48 -84 -48v0v0c-39.333 0 -68.666 22 -87.999 66c-20 44 -30 110 -30 198v0v0z" />
    <glyph glyph-name="seven" unicode="7" horiz-adv-x="478" 
d="M362 679l-5 -12c-2.66699 -8 -7 -19 -13 -33l-41 -104l-55 -138l-38 -97l-38 -94l-55 -140l-23 -57h14h32h42h20l15 38l37 99l27 69l29 76l66 174l55 142l18 47l6 17v50v51h-10h-29h-87h-108h-120h-53v-44v-44h41h93h122h58z" />
    <glyph glyph-name="eight" unicode="8" horiz-adv-x="494" 
d="M164 415c-42.667 -17.333 -74.666 -42.665 -95.999 -75.998c-21.333 -32.667 -32 -73.334 -32 -122.001v0v0c0 -28.667 3.66699 -55 11 -79s18.666 -46.333 33.999 -67v0v0c18.667 -24.667 41.667 -43 69 -55c28 -12.667 60.667 -19 98 -19v0v0
c32.667 0 61.667 4.66699 87 14c25.333 10 47.333 24.333 66 43v0v0c19.333 21.333 34 45.333 44 72c10 27.333 15 57.666 15 90.999v0v0c0 48.667 -10.667 89.334 -32 122.001c-21.333 33.333 -53.333 58.666 -96 75.999v0v0c38.667 16 67.334 38.333 86.001 67
c19.333 28 29 62.667 29 104v0v0c0 25.333 -4 49 -12 71c-8 21.333 -20 41.333 -36 60v0v0c-18 21.333 -39.667 37.333 -65 48c-24.667 10.667 -53.334 16 -86.001 16v0v0c-28.667 0 -54.334 -4 -77.001 -12c-23.333 -8 -43.666 -20.333 -60.999 -37v0v0
c-20.667 -19.333 -36 -41.333 -46 -66c-10 -24 -15 -50.667 -15 -80v0v0c0 -41.333 9.33301 -76 28 -104c19.333 -28.667 48.333 -51 87 -67v0v0zM246.001 702.001c36.667 0 64.334 -10.001 83.001 -30.001s28 -50 28 -90v0v0c0 -18 -2.66699 -34.333 -8 -49
c-4.66699 -14.667 -12 -27.667 -22 -39c-10.667 -11.333 -22.667 -20 -36 -26c-12.667 -6 -27 -9 -43 -9v0v0c-15.333 0 -29.333 2.66699 -42 8c-12.667 6 -24.334 14.333 -35.001 25v0v0c-10.667 10.667 -18.667 23.667 -24 39c-5.33301 14.667 -8 31.334 -8 50.001v0v0
c0 40.667 9 71 27 91s44.667 30 80 30v0v0zM246.001 374c16.667 0 31.999 -3.33398 45.999 -10.001s27 -16.667 39 -30v0v0c11.333 -12.667 20 -28.334 26 -47.001c6 -18 9 -38.667 9 -62v0v0c0 -49.333 -9.66699 -86.666 -29 -111.999c-19.333 -24.667 -48.333 -37 -87 -37
v0v0c-40 0 -70 12 -90 36s-30 60.333 -30 109v0v0c0 21.333 2 40.666 6 57.999c4.66699 16.667 11.334 31.334 20.001 44.001v0v0c12 16.667 25.333 29.334 40 38.001c15.333 8.66699 32 13 50 13v0v0z" />
    <glyph glyph-name="nine" unicode="9" horiz-adv-x="500" 
d="M365 342c-5.33301 -89.333 -19.665 -156.664 -42.998 -201.997c-22.667 -44.667 -54.334 -67 -95.001 -67v0v0c-24 0 -43.333 10.333 -58 31c-14.667 20 -24.334 50.333 -29.001 91h-48h-48v0v0c9.33301 -66 29 -115.667 59 -149c30 -32.667 70.333 -49 121 -49v0v0
c80 0 140 34.667 180 104s60 173.333 60 312v0v0c0 123.333 -18 215.666 -54 276.999s-90.333 92 -163 92v0v0c-30 0 -57 -5.33301 -81 -16s-45 -26.667 -63 -48v0v0c-21.333 -24.667 -37 -54.334 -47 -89.001c-10.667 -34.667 -16 -74.334 -16 -119.001v0v0
c0 -45.333 5.33301 -85 16 -119c10 -34.667 25.333 -63.667 46 -87v0v0c13.333 -15.333 29 -27 47 -35c18 -7.33301 38.333 -11 61 -11v0v0c28.667 0 56 7 82 21s50.333 34.667 73 62v0v1zM367.001 441.002c-20.667 -35.333 -42.333 -62 -65 -80s-46.667 -27 -72 -27v0v0
c-31.333 0 -55 15 -71 45s-24 75 -24 135v0v0c0 63.333 9.33301 111 28 143s46.667 48 84 48v0v0c40 0 70 -22 90 -66s30 -110 30 -198v0v0z" />
    <glyph glyph-name="colon" unicode=":" horiz-adv-x="302" 
d="M175 546c-9.33301 0 -17.999 -1.66699 -25.999 -5c-8 -2.66699 -15.333 -7 -22 -13v0v0c-7.33301 -7.33301 -13 -15 -17 -23c-4 -8.66699 -6 -18 -6 -28v0v0c0 -9.33301 1.66699 -18 5 -26c2.66699 -8 7 -15.333 13 -22v0v0c7.33301 -7.33301 15.333 -13 24 -17
s18 -6 28 -6v0v0c9.33301 0 18 1.66699 26 5c8 2.66699 15 7 21 13v0v0c8 7.33301 13.667 15 17 23c4 8.66699 6 18.334 6 29.001v0v0c0 9.33301 -1.33301 17.666 -4 24.999c-3.33301 8 -8 15.333 -14 22v0v0c-6.66699 7.33301 -14.334 13 -23.001 17s-18 6 -28 6v0v0z
M175.001 137c-9.33301 0 -17.999 -1.33496 -25.999 -4.00195s-15.333 -7 -22 -13v0v0c-7.33301 -7.33301 -13 -15 -17 -23c-4 -8.66699 -6 -18 -6 -28v0v0c0 -9.33301 1.66699 -18 5 -26c2.66699 -8 7 -15.333 13 -22v0v0c7.33301 -7.33301 15.333 -13 24 -17s18 -6 28 -6v0
v0c9.33301 0 18 1.66699 26 5c8 2.66699 15 7 21 13v0v0c8 6.66699 13.667 14.334 17 23.001c4 8.66699 6 18.334 6 29.001v0v0c0 8.66699 -1.33301 17 -4 25c-3.33301 8 -8 15.333 -14 22v0v0c-6.66699 7.33301 -14.334 13 -23.001 17s-18 6 -28 6v0v-1z" />
    <glyph glyph-name="semicolon" unicode=";" horiz-adv-x="305" 
d="M145 -115c34 22.667 59.666 47.333 76.999 74c16.667 27.333 25 57.333 25 90v0v0c0 29.333 -6 51.333 -18 66c-12.667 14.667 -30.667 22 -54 22h-2v0v0c-8.66699 0 -17 -1.33301 -25 -4s-15.333 -7 -22 -13v0v0c-7.33301 -6.66699 -12.666 -14 -15.999 -22
c-4 -8 -6 -16.333 -6 -25v0v0c0 -8 1.66699 -15.667 5 -23c2.66699 -6.66699 7 -13.334 13 -20.001v0v0c8 -7.33301 15.333 -13 22 -17c7.33301 -4 14 -6 20 -6v0v0c1.33301 0 2.33301 0.333008 3 1c1.33301 0 2.33301 0.333008 3 1v0v0c1.33301 0.666992 2.33301 1 3 1h1
l4 -1h3v0v0v1c0.666992 0 1 0.333008 1 1v0v0h1v0v-1v0v0v0c2 -1.33301 3 -2.66602 3 -3.99902c0.666992 -1.33301 1 -2.33301 1 -3v0v0c0 -12 -5.66699 -24.667 -17 -38s-28.333 -27.333 -51 -42l13 -19l13 -18v0v-1zM176.999 546.999
c-9.33301 0 -17.999 -1.66699 -25.999 -5c-8 -2.66699 -15.333 -7 -22 -13v0v0c-7.33301 -7.33301 -13 -15 -17 -23c-4 -8.66699 -6 -18 -6 -28v0v0c0 -9.33301 1.66699 -18 5 -26c2.66699 -8 7 -15.333 13 -22v0v0c7.33301 -7.33301 15.333 -13 24 -17
c7.33301 -3.33301 15.333 -5.33301 24 -6h4v0v0c9.33301 0 18 1.66699 26 5c8 2.66699 15 7 21 13v0v0c8 7.33301 13.667 15 17 23c4 8.66699 6 18.334 6 29.001v0v0c0 9.33301 -1.33301 17.666 -4 24.999c-3.33301 8 -8 15.333 -14 22v0v0
c-6.66699 7.33301 -14.334 13 -23.001 17s-18 6 -28 6v0v0z" />
    <glyph glyph-name="less" unicode="&#x3c;" horiz-adv-x="525" 
d="M472 737l-56 -45l-128 -103l-62 -50l-60 -48l-90 -73l-36 -29l56 -45l128 -103l62 -50l60 -48l89 -73l37 -29v47v46l-41 33l-94 75l-46 37l-44 36l-65 53l-27 21l41 33l94 76l83 67l68 55c9.33301 8 17 14 23 18l8 7v46v46z" />
    <glyph glyph-name="equal" unicode="=" horiz-adv-x="487" 
d="M441 448v36v36h-50h-117h-56h-55h-82h-33v-36v-36h51h116h104h84h28h10zM441 258v36v36h-50h-117h-56h-55h-82h-33v-36v-36h51h116h104h84h28h10z" />
    <glyph glyph-name="greater" unicode="&#x3e;" horiz-adv-x="518" 
d="M365 389l-41 -33l-94 -75l-83 -68l-68 -54c-9.33301 -8 -17 -14 -23 -18l-8 -7v-46v-47l56 45l128 103l62 50l60 48l90 73l36 29l-56 45l-128 103l-62 50l-60 48l-89 73l-37 29v-46v-46l41 -33l94 -76l84 -67l67 -55l23 -18z" />
    <glyph glyph-name="question" unicode="?" horiz-adv-x="544" 
d="M344 112h-14h-32h-3h-39h-20v-14v-32v-42v-20h14h32h42h20v14v32v42v20zM331 235l0.000976562 0.000976562c-0.666992 36.667 3.33301 69 12 97c8 27.333 20.333 50.333 37 69v0v0l61 62c15.333 16 25.666 27.667 30.999 35v0v0c10.667 14.667 18.334 30 23.001 46
c5.33301 16 8 33 8 51v0v0c0 30.667 -5.66699 58.334 -17 83.001c-12 24 -29.333 44.667 -52 62v0v0c-18 13.333 -38.667 23.666 -62 30.999c-22.667 6.66699 -48.334 10 -77.001 10v0v0c-70.667 0 -124 -19.667 -160 -59s-54.667 -98.666 -56 -177.999h46h46v0v0
c0.666992 27.333 3.33398 50.666 8.00098 69.999s11.334 34.333 20.001 45v0v0c10 12.667 23.333 22 40 28c16 6 35.667 9 59 9v0v0c38 0 66.333 -8.33301 85 -25c19.333 -16.667 29 -41.667 29 -75v0v0c0 -16 -3.66699 -32 -11 -48c-8 -16 -19.333 -32 -34 -48v0v0
c-22.667 -24 -41.334 -45.333 -56.001 -64c-14.667 -19.333 -25.334 -36 -32.001 -50v0v0c-9.33301 -20.667 -16.333 -43.334 -21 -68.001c-4.66699 -24 -7 -50.333 -7 -79v-20v-20h40h40v18v18z" />
    <glyph glyph-name="at" unicode="@" horiz-adv-x="536" 
d="M295 223c1.33301 -23.333 5.66406 -40.998 12.9971 -52.998c7.33301 -11.333 18 -17 32 -17v0v0c18 0 35.333 7.66699 52 23c16 16 31 39.667 45 71v0v0c12 27.333 21 58.666 27 93.999c6 34.667 9 73.334 9 116.001v0v0c0 49.333 -4.66699 93.333 -14 132
c-10 38.667 -24 72 -42 100v0v0c-21.333 31.333 -44.666 54.666 -69.999 69.999s-52.666 23 -81.999 23v0v0c-34 0 -65 -8.66699 -93 -26c-28.667 -17.333 -54.334 -43.333 -77.001 -78v0v0c-22 -34 -38.667 -75.667 -50 -125c-10.667 -50 -16 -107.667 -16 -173v0v0
c0 -64.667 5.33301 -121.334 16 -170.001c11.333 -48 28 -88.333 50 -121v0v0c20 -30.667 43.333 -53.667 70 -69c26 -15.333 55 -23 87 -23v0v0c32 0 63 10.333 93 31c29.333 21.333 57.333 53 84 95l-24 19l-24 19v0v0c-22 -32.667 -43.667 -57.334 -65 -74.001
c-20.667 -16.667 -41 -25 -61 -25v0v0c-26 0 -49.333 8 -70 24s-38.667 40 -54 72v0v0c-14 27.333 -24 58.666 -30 93.999c-6.66699 35.333 -10 74.666 -10 117.999v0v0c0 46.667 2.33301 88.334 7 125.001c5.33301 36.667 13.333 68.334 24 95.001v0v0
c16 42.667 35.667 74.334 59 95.001c23.333 21.333 51 32 83 32v0v0c22 0 42.333 -7 61 -21c18 -14 35 -35 51 -63v0v0c11.333 -20.667 20 -46 26 -76s9 -64.667 9 -104v0v0c0 -30.667 -2 -60 -6 -88c-3.33301 -28 -8.66602 -55.333 -15.999 -82v0v0c-6 -20 -12 -35 -18 -45
s-12 -15 -18 -15v0v0c-6 0 -10.667 1.66699 -14 5c-2.66699 4 -4 9.66699 -4 17v0v0v5c0.666992 2 1.33398 5.33301 2.00098 10l4 45l9 103c3.33301 31.333 6.33301 62 9 92c2.66699 30.667 5 55.667 7 75c0.666992 10.667 1.33398 19 2.00098 25l1 9h-27h-26l-2 -25l-1 -25
v0v0c-4.66699 22 -12 38.333 -22 49c-10 11.333 -22.667 17 -38 17v0v0c-16.667 0 -31.334 -4.66699 -44.001 -14c-13.333 -9.33301 -24.333 -23.666 -33 -42.999v0v0c-16 -33.333 -27.667 -72.333 -35 -117c-8 -44 -12 -93.667 -12 -149v0v0c0 -48 7 -84 21 -108
c13.333 -24 34 -36 62 -36v0v0c15.333 0 30 5.33301 44 16c14 11.333 27 27.666 39 48.999v0v0zM251.998 560.002c13.333 0 23.334 -6.00195 30.001 -18.002s10 -29.667 10 -53v0v0c0 -26 -1.66699 -52.667 -5 -80c-2.66699 -28 -6.66699 -56.667 -12 -86v0v0
c-6 -31.333 -14 -55 -24 -71c-10 -15.333 -21.667 -23 -35 -23v0v0c-10 0 -17.333 6 -22 18s-7 30.333 -7 55v14v13v0v0c0 32.667 1.66699 63.334 5 92.001c3.33301 29.333 9 57.333 17 84v0v0c5.33301 18.667 11.666 32.334 18.999 41.001c6.66699 9.33301 14.667 14 24 14
v0v0z" />
    <glyph glyph-name="A" unicode="A" horiz-adv-x="473" 
d="M384 4h45h45l-3 14l-9 38l-28 120l-38 158l-26 113l-26 107l-38 162l-16 65h-45h-45l-3 -14l-9 -38l-28 -120l-38 -158l-26 -113l-26 -107l-38 -162l-16 -65h45h45l7 29l14 66c6.66699 30 12.667 59 18 87l9 41h24h54h71h33l7 -29l14 -66c6.66699 -30 12.667 -59 18 -87z
M171 306l10 44c6 29.333 13.333 63 22 101l10 49l11 47l15 71l6 29l10 -44c6 -29.333 13.333 -63 22 -101l10 -49l11 -47l15 -71l6 -29h-19h-44h-57h-28z" />
    <glyph glyph-name="B" unicode="B" horiz-adv-x="557" 
d="M285 11l-0.000976562 0.000976562c38.667 0 72.667 4.66699 102 14c28.667 9.33301 52.334 23 71.001 41v0v0c20.667 20 36 42.333 46 67c10 25.333 15 52.666 15 81.999v0v0c0 50.667 -12 91.667 -36 123c-24 32 -60.333 54.667 -109 68v0v0c42 15.333 73.333 38 94 68
c21.333 29.333 32 66 32 110v0v0c0 27.333 -5 52.666 -15 75.999c-10 22.667 -25.333 43.334 -46 62.001v0v0c-16.667 15.333 -40.667 27 -72 35c-31.333 7.33301 -70.333 11 -117 11h-22h-50h-66h-31v-13v-37v-117v-154v-200v-162v-53v-20h26h61h79
c25.333 0 38 -0.333008 38 -1zM169.999 363.001l43.998 0.000976562h45v0v0c56.667 0 99.334 -11.667 128.001 -35c28.667 -22.667 43 -57.334 43 -104.001v0v0c0 -43.333 -13.333 -76 -40 -98c-27.333 -21.333 -67.666 -32 -120.999 -32h-50h-49v50v105v79v35z
M169.997 686.002l45 0.000976562h46v0v0c26.667 0 49 -1.66699 67 -5s32.333 -8.33301 43 -15v0v0c13.333 -8.66699 23.333 -20.334 30 -35.001c6.66699 -15.333 10 -33.333 10 -54v0v0c0 -44 -13.333 -77 -40 -99c-26 -22 -65.333 -33 -118 -33h-42h-41v31v71v94v45z" />
    <glyph glyph-name="C" unicode="C" horiz-adv-x="507" 
d="M471 560c-8 74 -28.001 129.667 -60.001 167c-32 36.667 -76.333 55 -133 55v0v0c-40.667 0 -76 -9.33301 -106 -28s-54.667 -46.334 -74 -83.001v0v0c-19.333 -36.667 -34 -78.667 -44 -126c-9.33301 -48 -14 -101.333 -14 -160v0v0c0 -129.333 20 -226.333 60 -291
s99.667 -97 179 -97v0v0c54.667 0 99.334 19.667 134.001 59c34.667 40 58.667 99.667 72 179h-48h-47v0v0c-9.33301 -51.333 -24 -89.666 -44 -114.999c-19.333 -25.333 -44.333 -38 -75 -38v0v0c-46.667 0 -81.667 24.667 -105 74s-35 123.666 -35 222.999v0v0
c0 106 12.333 185.667 37 239c24 52.667 60.333 79 109 79v0v0c28 0 50.333 -11.333 67 -34c16 -23.333 26.667 -57.666 32 -102.999h47h48v0v0z" />
    <glyph glyph-name="D" unicode="D" horiz-adv-x="578" 
d="M259 11l-0.00195312 0.000976562c44.667 0 83.334 7 116.001 21s59.334 35.333 80.001 64v0v0c26.667 35.333 46.667 77.666 60 126.999c12.667 48.667 19 104 19 166v0v0c0 126 -24 220.333 -72 283c-48 63.333 -120.333 95 -217 95h-19h-44h-58h-28v-13v-37v-117v-154
v-200v-162v-53v-20h21h49h63h30zM184.998 682.001h32.999h33v0v0c64 0 112 -24.333 144 -73c32 -48 48 -120.333 48 -217v0v0c0 -52 -3.66699 -96.667 -11 -134c-7.33301 -38 -18.666 -68.667 -33.999 -92c-14.667 -23.333 -34 -41 -58 -53
c-24.667 -11.333 -53.667 -17 -87 -17h-34h-34v15v42v126v154v173v76z" />
    <glyph glyph-name="E" unicode="E" horiz-adv-x="581" 
d="M534 11v43v42h-45h-103h-50h-49h-72h-30v33v77v101v48h38h87h114h54v43v42h-38h-86h-115h-54v31v72v94v45h9h25h75h92h103h45v42v43h-56h-130h-115h-94h-31h-12v-13v-37v-117v-154v-200v-162v-53v-20h57h130h63h60h91h37z" />
    <glyph glyph-name="F" unicode="F" horiz-adv-x="562" 
d="M185 4v45v102v50v48v72v29h39h90h117h56v40v40h-39h-89h-118h-56v33v76v100v48h9h25h75h92h103h45v40v40h-56h-130h-115h-94h-31h-12v-44v-114v-79v-87v-110v-106v-159v-64h45h44z" />
    <glyph glyph-name="G" unicode="G" horiz-adv-x="555" 
d="M490 577c-10 68.667 -31.334 119.998 -64.001 153.998c-32 34 -75.333 51 -130 51v0v0c-42.667 0 -80 -9.33301 -112 -28c-31.333 -18 -57.333 -45.333 -78 -82v0v0c-20 -35.333 -35 -76 -45 -122s-15 -97.333 -15 -154v0v0c0 -133.333 20.333 -233 61 -299
c40.667 -66.667 101.667 -100 183 -100v0v0c33.333 0 63 6 89 18s48.667 30 68 54v0v0c14.667 17.333 25.334 35.333 32.001 54c7.33301 18 11 36.333 11 55v31v70v93v44h-27h-62h-82h-39v-42v-42h16h35h47h23v-16v-37v-49v-23v0v0c0 -43.333 -9.66699 -75.666 -29 -96.999
c-18.667 -21.333 -47 -32 -85 -32v0v0c-50 0 -87.667 26.667 -113 80c-24.667 52.667 -37 132.334 -37 239.001v0v0c0 100 12.667 175 38 225s63.333 75 114 75v0v0c30.667 0 54.667 -10 72 -30s28.333 -50 33 -90h48h48v0v0z" />
    <glyph glyph-name="H" unicode="H" horiz-adv-x="597" 
d="M170 4v45v104v92v75v25v9h33h75h99h47v-45v-104v-50v-49v-72v-30h44h45v45v114v80v88v111v107v160v65h-45h-44v-43v-99v-49v-46v-70v-28h-33h-75h-99h-47v43v99v49v46v70v28h-45h-44v-20v-55v-164v-204v-88v-80v-114v-45h44h45z" />
    <glyph glyph-name="I" unicode="I" horiz-adv-x="270" 
d="M187 4v45v114v80v88v111v107v160v65h-45h-46v-20v-55v-164v-204v-88v-80v-114v-45h46h45z" />
    <glyph glyph-name="J" unicode="J" horiz-adv-x="537" 
d="M15 223c5.33301 -33.333 11.667 -62 19 -86c8 -23.333 16.667 -41.666 26 -54.999v0v0c19.333 -28.667 43.666 -50 72.999 -64c30 -14 64.667 -21 104 -21v0v0c74.667 0 130.334 21.667 167.001 65c37.333 43.333 56 108.333 56 195v67v153v75v71v108v43h-45h-44v-66
v-152v-73v-71v-107v-43v0v0c0 -60 -10.667 -105 -32 -135s-53.333 -45 -96 -45v0v0c-38 0 -67.667 11.667 -89 35s-34.333 58.666 -39 105.999h-50h-50v0v0z" />
    <glyph glyph-name="K" unicode="K" horiz-adv-x="517" 
d="M492 774l-14 -0.000976562h-31h-41h-19l-6 -9l-16 -26l-48 -78l-60 -96l-66 -107l-29 -47v9v26v78v96v107v47h-45h-44v-20v-55v-164v-204v-88v-80v-114v-45h44h45v35v81v105v51l10 15l22 35l30 45l15 22l22 -50l50 -115l25 -56l24 -54l35 -81l15 -33h14h32h42h20l-19 40
l-47 98l-30 66c-11.333 22.667 -22 45.334 -32 68.001l-67 140l-28 61l25 38l58 88l29 43l27 41l41 62z" />
    <glyph glyph-name="L" unicode="L" horiz-adv-x="541" 
d="M518 11v44v44h-46h-105h-51h-49h-73h-30v17v48v145v178v77v70v101v39h-46h-45v-44v-114v-79v-87v-110v-106v-159v-64h57h132h117h95h32h12z" />
    <glyph glyph-name="M" unicode="M" horiz-adv-x="578" 
d="M160 4l-0.00390625 12v35v108v143v101v97v146v59l2 -12c0.666992 -8.66699 2.33398 -20.334 5.00098 -35.001c4 -27.333 9 -63.333 15 -108l21 -143c5.33301 -33.333 10.333 -67 15 -101s9.33398 -66.333 14.001 -97c8.66699 -58 15.667 -106.667 21 -146l9 -59h38h38
l2 12c0.666992 8.66699 2.33398 20.334 5.00098 35.001c4 27.333 9 63.333 15 108l21 143c5.33301 33.333 10.333 67 15 101s9.33398 66.333 14.001 97c8.66699 58 15.667 106.667 21 146l9 59v-41v-104v-73v-80v-101v-97v-146v-59h39h40v45v114v80v88v111v107v160v65h-18
h-40h-52h-25l-11 -77l-25 -176l-12 -86l-12 -83l-17 -124l-7 -50l-11 77l-25 176l-12 86l-12 83l-17 124l-7 50h-18h-40h-52h-25v-20v-55v-164v-204v-88v-80v-114v-45h39h40z" />
    <glyph glyph-name="N" unicode="N" horiz-adv-x="581" 
d="M170 4v78v179v87v84v125v51l14 -35l35 -90l25 -63l27 -69l63 -159l51 -130l17 -42l6 -16h13h32h40h20v45v114v80v88v111v107v160v65h-45h-44v-78v-179v-87v-84v-125v-51l-4 11l-12 29l-37 93l-48 124l-35 87l-33 84l-49 125l-20 51h-14h-31h-41h-19v-20v-55v-164v-204
v-88v-80v-114v-45h44h45z" />
    <glyph glyph-name="O" unicode="O" horiz-adv-x="517" 
d="M266 781c-75.333 0 -132 -33.001 -170 -99.001c-37.333 -66 -56 -164.667 -56 -296v0v0c0 -129.333 18.333 -226.666 55 -291.999c37.333 -64.667 93 -97 167 -97v0v0c74 0 129.333 32.667 166 98c37.333 65.333 56 163.333 56 294v0v0
c0 130.667 -18.333 228.667 -55 294c-36 65.333 -90.333 98 -163 98v0v0zM260 695.999c44.667 0 78.001 -25.999 100.001 -77.999s33 -129.667 33 -233v0v0c0 -100.667 -11 -176.334 -33 -227.001s-54.667 -76 -98 -76v0v0c-43.333 0 -76 25.333 -98 76
c-22 51.333 -33 128 -33 230v0v0c0 102.667 10.667 179.667 32 231s53.666 77 96.999 77v0v0z" />
    <glyph glyph-name="P" unicode="P" horiz-adv-x="576" 
d="M178 4v44.999v102v50v48v72v29h15h36h46h22v0v0c77.333 0 135.666 18 174.999 54c38.667 36 58 90 58 162v0v0c0 30 -5.33301 57.667 -16 83c-10 24.667 -25.333 47.334 -46 68.001v0v0c-16.667 16.667 -41 29 -73 37c-31.333 8.66699 -69.666 13 -114.999 13h-25h-56
h-75h-35v-44v-114v-79v-87v-110v-106v-159v-64h45h44zM178 684.999h14h31h41h19v0v0c33.333 0 61 -3.33301 83 -10c21.333 -6 37.333 -15.667 48 -29v0v0c8.66699 -10 15 -22.333 19 -37c4 -14 6 -30.333 6 -49v0v0c0 -42.667 -13.667 -74.667 -41 -96s-68.333 -32 -123 -32
h-48h-49v33v75v98v47z" />
    <glyph glyph-name="Q" unicode="Q" horiz-adv-x="531" 
d="M439 127c14 32 24.333 69.667 31 113c7.33301 43.333 11 92.333 11 147v0v0c0 131.333 -18.667 230 -56 296c-36.667 65.333 -92 98 -166 98v0v0c-74 0 -129.667 -32.667 -167 -98c-36.667 -65.333 -55 -163.333 -55 -294v0v0c0 -130.667 18.333 -228.667 55 -294
c37.333 -65.333 93 -98 167 -98v0v0c28.667 0 54.667 5 78 15s44 25.333 62 46l24 -31l25 -30l23 31l24 32l-28 34l-28 33v0v0zM281 318l-22.999 -28.002l-22 -29l14 -18l32 -39l42 -53l20 -25v0v0c-10.667 -14.667 -23 -25.667 -37 -33
c-14.667 -7.33301 -30.667 -11 -48 -11v0v0c-43.333 0 -76 25.667 -98 77c-22 50.667 -33 127.334 -33 230.001v0v0c0 102.667 11 179.334 33 230.001c22 51.333 54.667 77 98 77v0v0c43.333 0 76 -26 98 -78s33 -129.667 33 -233v0v0c0 -35.333 -1.33301 -68 -4 -98
s-6.33398 -57.333 -11.001 -82l-12 14l-28 34l-37 44z" />
    <glyph glyph-name="R" unicode="R" horiz-adv-x="570" 
d="M185 4l0.000976562 44.999v104v92v75v25v9h41h40v0v0c37.333 -1.33301 67.666 -16.666 90.999 -45.999s40 -72.333 50 -129v0v0l17 -104c4.66699 -28.667 8.66699 -52.334 12 -71.001h49h49v0v0c-1.33301 6 -3.33301 15.667 -6 29c-3.33301 14 -7 31.667 -11 53l-6 28
l-6 27v0v0c-7.33301 42 -15.666 78.333 -24.999 109c-8.66699 30.667 -18.334 55.334 -29.001 74.001v0v0c-8.66699 14 -20 26.333 -34 37c-14.667 10 -31.667 18.667 -51 26v0v0c54.667 12.667 95.667 34 123 64c26.667 30.667 40 70 40 118v0v0c0 66 -19 115.667 -57 149
c-38 32.667 -94.667 49 -170 49h-26h-61h-80h-39v-44v-114v-79v-87v-110v-106v-159v-64h45h44zM185.001 685.999l14.001 -0.000976562h30h40h19v0v0c50 0 87.667 -9.66699 113 -29c24.667 -19.333 37 -48.666 37 -87.999v0v0c0 -44.667 -14 -78 -42 -100
c-28.667 -22.667 -71.334 -34 -128.001 -34h-41h-42v32v75v97v47z" />
    <glyph glyph-name="S" unicode="S" horiz-adv-x="523" 
d="M48 239c7.33301 -80.667 29.666 -141.003 66.999 -181.003c38 -40.667 90.333 -61 157 -61v0v0c32 0 60.667 4 86 12s47.333 20.333 66 37v0v0c23.333 20.667 40.666 45.334 51.999 74.001c11.333 28 17 60.333 17 97v0v0c0 47.333 -12.333 88.666 -37 123.999
c-25.333 34.667 -62.666 63.334 -111.999 86.001l-15 7l-33 16c-16 6.66699 -31 13.334 -45 20.001l-21 10v0v0c-28 12.667 -49 28.667 -63 48c-14 18.667 -21 40.334 -21 65.001v0v0c0 35.333 9.33301 62 28 80c19.333 17.333 47.666 26 84.999 26v0v0
c33.333 0 60 -10.667 80 -32s33.333 -53.333 40 -96h49h48v0v0c-6.66699 70 -27.334 122.333 -62.001 157c-34 35.333 -82.667 53 -146 53v0v0c-27.333 0 -52.666 -3.66699 -75.999 -11s-44.666 -18.666 -63.999 -33.999v0v0c-23.333 -18 -41 -39.333 -53 -64
c-12 -24 -18 -51.667 -18 -83v0v0c0 -42 11.333 -78.667 34 -110s56.334 -57.333 101.001 -78l13 -6l30 -14l39 -18l19 -9v0v0c36.667 -16.667 64 -37.334 82 -62.001c18 -24 27 -52.333 27 -85v0v0c0 -18.667 -3 -35.667 -9 -51s-15 -29.333 -27 -42v0v0
c-11.333 -11.333 -24.333 -20 -39 -26s-31 -9 -49 -9v0v0c-38.667 0 -69 13.333 -91 40c-21.333 26.667 -34 66.667 -38 120h-50h-51v0v0z" />
    <glyph glyph-name="T" unicode="T" horiz-adv-x="493" 
d="M199 682v-12v-33v-105v-138v-98v-94v-141v-57h46h45v12v33v105v138v98v94v141v57h24h55h71h34v42v43h-59h-135h-121h-98h-33h-12v-43v-42h24h54h71h34z" />
    <glyph glyph-name="U" unicode="U" horiz-adv-x="589" 
d="M81 217h0.00195312c0 -73.333 18 -128.666 54 -165.999c36 -36.667 90 -55 162 -55v0v0c72 0 126 18.333 162 55c36 37.333 54 92.666 54 165.999v72v165v147v119v40v14h-45h-44v-71v-164v-79v-77v-114v-47v0v0c0 -46.667 -10.667 -82 -32 -106
c-20.667 -23.333 -52.334 -35 -95.001 -35v0v0c-42.667 0 -74.334 11.667 -95.001 35c-21.333 24 -32 59.333 -32 106v71v164v146v118v39v14h-45h-44v-72v-165v-80v-77v-116v-47z" />
    <glyph glyph-name="V" unicode="V" horiz-adv-x="520" 
d="M483 774l-46.001 -0.000976562h-46l-3 -11c-1.33301 -7.33301 -3.66602 -17.666 -6.99902 -30.999c-4.66699 -24.667 -11.667 -57.334 -21 -98.001l-28 -130l-36 -168l-29 -136c-4 -19.333 -7.33301 -34.333 -10 -45l-3 -17l-3 11
c-1.33301 7.33301 -3.66602 17.666 -6.99902 30.999c-4.66699 24.667 -11.667 57.334 -21 98.001l-28 130l-36 168l-29 136c-4 19.333 -7.33301 34.333 -10 45l-3 17h-46h-46l4 -20c3.33301 -13.333 7.66602 -31.666 12.999 -54.999l39 -165l48 -203l20 -88l19 -80
c11.333 -46.667 20.333 -85 27 -115l11 -44h48h48l3 14c2 8.66699 5 21 9 37c6.66699 30 16 69.667 28 119l37 157c8 36.667 16.667 73.667 26 111l25 107l37 160z" />
    <glyph glyph-name="W" unicode="W" horiz-adv-x="499" 
d="M347 4h34.001h34l1 14c0.666992 8.66699 2 21 4 37c3.33301 30 7.33301 69.667 12 119l17 157l12 111l11 107l17 160l7 65h-40h-40l-6 -70c-4 -47.333 -8.33301 -101.333 -13 -162l-6 -78c-2 -26.667 -4 -52 -6 -76c-3.33301 -44.667 -6.33301 -82.334 -9 -113.001
l-3 -46l-11 70l-23 162l-22 144c-6.66699 47.333 -12.334 86 -17.001 116c-2 16.667 -3.66699 29.667 -5 39l-2 14h-33h-32l-11 -70l-23 -162l-12 -78l-11 -76l-17 -113l-6 -46l-6 70c-4 47.333 -8.33301 101.333 -13 162l-6 78c-2 26.667 -4 52 -6 76
c-3.33301 44.667 -6.33301 82.334 -9 113.001l-3 46h-40h-40l6 -65l17 -160c4 -34 7.66699 -69.667 11 -107l12 -111c3.33301 -29.333 6.33301 -58.333 9 -87c3.33301 -28.667 6.33301 -55.667 9 -81c4.66699 -46.667 8.66699 -84.667 12 -114l5 -45h34h34l11 74l26 172
l22 152c8 50 14.333 91.333 19 124c2.66699 17.333 4.66699 31 6 41l3 15l11 -74l25 -172l12 -83c4.66699 -27.333 8.66699 -54 12 -80l18 -120z" />
    <glyph glyph-name="X" unicode="X" horiz-adv-x="482" 
d="M140 774h-47.001h-47l21 -47l48 -107c8 -17.333 15.667 -35 23 -53l23 -50l34 -75l14 -31l-24 -52l-55 -121l-48 -108l-40 -87c-5.33301 -12 -9.66602 -21.333 -12.999 -28l-4 -11h48h49l17 40l39 94l19 45l18 43l27 65l12 27l17 -40l39 -94l34 -82l29 -67l9 -23l4 -8h48
h49l-24 52l-55 121l-26 59l-26 56l-38 85l-15 34l13 31l34 75l23 50l23 53l48 107l22 47h-47h-47l-15 -35l-34 -81l-44 -106l-21 -50l-21 50l-45 106l-34 81z" />
    <glyph glyph-name="Y" unicode="Y" horiz-adv-x="466" 
d="M466 774h-47h-47l-17 -44l-40 -103l-36 -91l-29 -73c-4 -10.667 -7 -19 -9 -25l-4 -9l-17 45l-41 102l-35 91l-30 74c-4 10 -7 18 -9 24l-4 9h-46h-47l5 -11l13 -31l40 -94l48 -114l54 -129l24 -56v-43v-99v-49v-46v-70v-28h45h45v43v99v49v46v70v28l16 37l38 90l25 60
l27 63l54 129z" />
    <glyph glyph-name="Z" unicode="Z" horiz-adv-x="497" 
d="M469 11v42.999v42h-45h-104h-50h-49h-72h-29l9 15l24 41l74 124l91 153l71 118l54 89c6.66699 12.667 12 22.334 16 29.001l7 10v46v46h-56h-127h-114h-92h-30h-11v-43v-42h42h98h128h62l-6 -10l-17 -29l-53 -89l-69 -118l-49 -84l-48 -80l-71 -120l-28 -49v-46v-46h57
h131h64h62h92h38z" />
    <glyph glyph-name="bracketleft" unicode="[" horiz-adv-x="362" 
d="M344 847h-36h-83h-109h-51v-16v-45v-141v-188v-131v-127v-191v-77h35h83h109h52v36v36h-27h-62h-80h-38v14v37v119v158v204v165v55v20h26h62h80h39v36v36z" />
    <glyph glyph-name="backslash" unicode="\" horiz-adv-x="402" 
d="M414 -56l-6 16l-18 45l-55 142l-74 187l-51 132l-50 127l-75 190l-30 78l-35 -13l-34 -14l21 -53l54 -136l38 -96l41 -105l95 -241l77 -197c11.333 -27.333 20 -49 26 -65l9 -24l34 14z" />
    <glyph glyph-name="bracketright" unicode="]" horiz-adv-x="362" 
d="M232 775v-45v-115v-80v-88v-112v-107v-160v-65h-27h-61h-81h-38v-36v-36h35h83h109h52v16v45v141v188v131v127v191v77h-36h-83h-109h-51v-36v-36h26h62h80h39z" />
    <glyph glyph-name="asciicircum" unicode="^" horiz-adv-x="387" 
d="M148 901l-18 -18.001c-12.667 -11.333 -25.667 -23.666 -39 -36.999l-30 -29l-13 -12l16 -18l15 -18l16 10c10.667 6 22.667 13.333 36 22l48 30l23 14l16 -10c10.667 -6.66699 23 -14 37 -22l48 -30l23 -14l16 18l15 18l-13 12l-30 29l-39 37l-19 18h-14h-32h-42h-20z
" />
    <glyph glyph-name="underscore" unicode="_" horiz-adv-x="454" 
d="M480 -123v36v36h-66h-151h-74h-71h-106h-44v-36v-36h66h152h73h72h106h43z" />
    <glyph glyph-name="grave" unicode="`" horiz-adv-x="396" 
d="M69 901l-22 -37l-22 -37l33 -10l75 -22l100 -30l47 -14l10 21l10 21l-30 14l-69 32l-90 42z" />
    <glyph glyph-name="a" unicode="a" horiz-adv-x="468" 
d="M386 335c-51.333 0 -95.668 -1.99902 -133.001 -5.99902c-36.667 -4 -65.667 -10.333 -87 -19v0v0c-42 -16 -73.667 -37.667 -95 -65c-20.667 -27.333 -31 -60.666 -31 -99.999v0v0c0 -18.667 3 -36.334 9 -53.001c6 -16 15.333 -30.667 28 -44v0v0
c15.333 -16.667 33.666 -29.334 54.999 -38.001c22 -8.66699 46.667 -13 74 -13v0v0c33.333 0 65 7.33301 95 22s58.333 36.667 85 66v-41v-40h41h41v46v106v51v50v74v30v0v0c0 62 -16.333 108.333 -49 139c-33.333 31.333 -82.666 47 -147.999 47v0v0
c-60.667 0 -108 -12.333 -142 -37s-55 -61.667 -63 -111h13h32h41h20v0v0c5.33301 22.667 16.333 40 33 52c16.667 11.333 38.667 17 66 17v0v0c38.667 0 67.334 -8.33301 86.001 -25c19.333 -16 29 -40.333 29 -73v-18v-17v0v0zM385.998 202.001v-0.000976562
c0 -12.667 -4.66699 -26 -14 -40s-23.333 -29 -42 -45v0v0c-17.333 -15.333 -36.333 -27 -57 -35c-20.667 -7.33301 -42.334 -11 -65.001 -11v0v0c-27.333 0 -48 6.66699 -62 20s-21 33 -21 59v0v0c0 23.333 6 43 18 59c12 16.667 30.333 30.334 55 41.001v0v0
c16.667 7.33301 40.334 13 71.001 17c31.333 4 70.333 6.66699 117 8v-36v-37z" />
    <glyph glyph-name="b" unicode="b" horiz-adv-x="504" 
d="M141 4v38.001v39v0v0c20 -28 42.333 -49 67 -63c25.333 -14 53.333 -21 84 -21v0v0c64 0 112 23.667 144 71c32 48 48 119.667 48 215v0v0c0 42.667 -5 80.667 -15 114s-25.333 62.333 -46 87v0v0c-16.667 20.667 -36 36 -58 46s-47 15 -75 15v0v0
c-30 0 -57.333 -7.66699 -82 -23c-24.667 -14.667 -47 -37.334 -67 -68.001v59v124v95v41h-42h-43v-20v-55v-164v-204v-88v-80v-114v-45h43c28 0 42 0.333008 42 1zM141 305.001c0 25.333 4 48.666 12 69.999c8 20.667 20 39.334 36 56.001v0v0c12 12.667 25.333 22 40 28
s30.667 9 48 9v0v0c40 0 69.667 -16.667 89 -50c20 -34 30 -84.667 30 -152v0v0c0 -64.667 -9.33301 -113 -28 -145c-19.333 -32 -48 -48 -86 -48v0v0c-21.333 0 -41 4 -59 12c-17.333 8 -33 20.333 -47 37v0v0c-11.333 14 -20 29.333 -26 46c-6 16 -9 33.333 -9 52v42v43v0
v0z" />
    <glyph glyph-name="c" unicode="c" horiz-adv-x="482" 
d="M456 375c-12 59.333 -35 104.002 -69 134.002c-33.333 29.333 -77.666 44 -132.999 44v0v0c-36.667 0 -69.334 -7 -98.001 -21s-53.334 -34.667 -74.001 -62v0v0c-17.333 -23.333 -30.333 -50.666 -39 -81.999c-8.66699 -30.667 -13 -65.334 -13 -104.001v0v0
c0 -40.667 4.33301 -77.334 13 -110.001c8.66699 -33.333 21.667 -62.333 39 -87v0v0c20 -28 44.667 -49 74 -63s63 -21 101 -21v0v0c58 0 104 16.667 138 50c34.667 34 57 84.667 67 152h-45h-46v0v0c-8 -40.667 -21.667 -71.334 -41 -92.001
c-18.667 -20.667 -42.667 -31 -72 -31v0v0c-46 0 -81 16 -105 48c-23.333 32 -35 80.333 -35 145v0v0c0 66.667 11.333 116.334 34 149.001c22.667 33.333 56.334 50 101.001 50v0v0c27.333 0 50.333 -8.33301 69 -25c18 -16.667 32 -41.334 42 -74.001h46h46v0v0z" />
    <glyph glyph-name="d" unicode="d" horiz-adv-x="513" 
d="M458 774l-42.999 -0.000976562h-42v-41v-95v-124v-59v0v0c-20 30.667 -42.333 53.334 -67 68.001c-24.667 15.333 -52 23 -82 23v0v0c-28 0 -53 -5 -75 -15s-41.333 -25.333 -58 -46v0v0c-20.667 -24.667 -36 -53.667 -46 -87c-10 -34 -15 -72.333 -15 -115v0v0
c0 -95.333 15.667 -167 47 -215c32 -47.333 80 -71 144 -71v0v0c31.333 0 59.666 7 84.999 21c24.667 14 47 35 67 63v-39v-38h42h43v45v114v80v88v111v107v160v65zM373.001 220.999c0 -18.667 -2.99805 -35.999 -8.99805 -51.999c-6 -16.667 -14.667 -32 -26 -46v0v0
c-14 -16.667 -29.667 -29 -47 -37c-18 -8 -37.667 -12 -59 -12v0v0c-38 0 -66.667 16 -86 48c-18.667 32 -28 80.333 -28 145v0v0c0 67.333 9.66699 118 29 152c19.333 33.333 48.666 50 87.999 50v0v0c15.333 0 29.666 -2.33301 42.999 -7s26 -11.667 38 -21v0v0
c18.667 -16.667 32.667 -36.334 42 -59.001c10 -22 15 -47.333 15 -76v-43v-42v0v0z" />
    <glyph glyph-name="e" unicode="e" horiz-adv-x="502" 
d="M469 256v0.00195312c-1.33301 43.333 -4.33301 80 -9 110s-10.667 53.333 -18 70v0v0c-18 38 -42.667 66.667 -74 86c-30.667 18.667 -68.334 28 -113.001 28v0v0c-34 0 -64.333 -6 -91 -18c-26 -12 -48.333 -30.333 -67 -55v0v0c-19.333 -24.667 -34 -54 -44 -88
c-9.33301 -34 -14 -72.333 -14 -115v0v0c0 -52.667 7.33301 -98.334 22 -137.001s36.667 -70.334 66 -95.001v0v0c18 -15.333 39 -27 63 -35c24 -7.33301 50.667 -11 80 -11v0v0c58 0 103.667 15.333 137 46c33.333 31.333 54.666 78 63.999 140h-45h-45v0v0
c-6.66699 -38.667 -19.667 -67.667 -39 -87s-45.333 -29 -78 -29v0v0c-43.333 0 -76.666 15.667 -99.999 47c-23.333 32 -36.666 79.667 -39.999 143h44h102h91h74h25h9zM128 332.002c7.33301 47.333 21.667 83 43 107c20.667 23.333 48.667 35 84 35v0v0
c35.333 0 63.333 -11.667 84 -35c20.667 -24 33.667 -59.667 39 -107h-33h-74h-97h-46v0v0z" />
    <glyph glyph-name="f" unicode="f" horiz-adv-x="366" 
d="M140 452v-57.998v-133v-64v-62v-93v-38h43h42v58v133v64v62v93v38h17h39h51h24v40v39h-16h-39h-51h-25v13v31v40v19v0v0c0 18.667 4.66699 32.334 14 41.001c9.33301 9.33301 23.666 13.666 42.999 12.999h35h34v40v39h-48h-48v0v0
c-39.333 -0.666992 -68.666 -10.334 -87.999 -29.001c-18.667 -18.667 -27.667 -46.334 -27 -83.001v-16v-37v-48v-23h-23h-48h-37h-16v-39v-40h16h37h48h23z" />
    <glyph glyph-name="g" unicode="g" horiz-adv-x="524" 
d="M382 499c-17.333 15.333 -36.665 26.9971 -57.998 34.9971c-20.667 8 -43.334 12 -68.001 12v0v0c-30 0 -57 -4.33301 -81 -13c-24 -9.33301 -45 -22.666 -63 -39.999v0v0c-16.667 -16 -29 -33.333 -37 -52s-12 -39 -12 -61v0v0c0 -28.667 7 -53.667 21 -75
c14 -22 34.667 -40.667 62 -56v0v0c-22.667 -9.33301 -39.667 -20 -51 -32s-17 -25 -17 -39v0v0c0 -11.333 4.66699 -22 14 -32s23.333 -19.667 42 -29v0v0c-34.667 -12.667 -60.334 -28.667 -77.001 -48c-17.333 -20 -26 -43.333 -26 -70v0v0c0 -40.667 18.333 -71 55 -91
c36 -20 90.333 -30 163 -30v0v0c73.333 0 128.333 10.667 165 32c36.667 20.667 55 52.334 55 95.001v0v0c0 38.667 -18 70.334 -54 95.001c-36 25.333 -90 43.666 -162 54.999v0v0c-31.333 4.66699 -55 10.334 -71 17.001s-24 13.667 -24 21v0v0
c0 7.33301 3.66699 13.666 11 18.999c7.33301 4.66699 18.333 8.66699 33 12v0v0c10.667 -1.33301 20.334 -2.66602 29.001 -3.99902c8 -0.666992 15.333 -1 22 -1v0v0c25.333 0 48.333 3.33301 69 10c21.333 6 40.666 15.333 57.999 28v0v0c19.333 14 34 31 44 51
c9.33301 20 14 42.667 14 68v0v0c0 12.667 -1.33301 25 -4 37c-3.33301 12.667 -8 25 -14 37v0v0c10 4 20.667 7 32 9c12 2 24.333 3 37 3v42v43v0v0c-19.333 -1.33301 -38 -6 -56 -14c-17.333 -8 -34.333 -19 -51 -33v0v-1zM225.001 96.9971
c5.33301 0.666992 15.667 -0.666016 31 -3.99902s35.333 -8.66602 60 -15.999v0v0c24.667 -7.33301 43 -16.666 55 -27.999c12 -10.667 18 -23.334 18 -38.001v0v0c0 -20.667 -12.333 -36 -37 -46c-25.333 -10.667 -63 -16 -113 -16v0v0c-42.667 0 -74.667 5.33301 -96 16
c-21.333 11.333 -32 27.666 -32 48.999v0v0c0 21.333 9.66699 38.666 29 51.999c18.667 14 47 24.333 85 31v0v0zM254.002 475.997c34.667 0 60.6689 -7.66797 78.002 -23.001s26 -38.666 26 -69.999v0v0c0 -30.667 -8.66699 -54 -26 -70c-18 -15.333 -44.667 -23 -80 -23v0
v0c-14.667 0 -28 1.66699 -40 5c-12.667 4 -24.334 9.66699 -35.001 17v0v0c-11.333 8.66699 -20 18.667 -26 30c-5.33301 11.333 -8 24 -8 38v0v0c0 12.667 2.33301 24.334 7 35.001c5.33301 11.333 12.666 21.666 21.999 30.999v0v0c10 10 21.667 17.667 35 23
c14 4.66699 29.667 7 47 7v0v0z" />
    <glyph glyph-name="h" unicode="h" horiz-adv-x="546" 
d="M150 4l0.000976562 39v91v119v57v0v0c0 22 5 43 15 63s25.333 39 46 57v0v0c14 12.667 29.333 22 46 28s35 9 55 9v0v0c28 0 49.333 -9.33301 64 -28c14.667 -18 22 -45.333 22 -82v-46v-104v-51v-49v-73v-30h42h43v47v107v52v50v75v31v0v0c0 60 -13.333 105 -40 135
s-66.334 45 -119.001 45v0v0c-34 0 -65.333 -8.33301 -94 -25c-29.333 -16 -56 -40.333 -80 -73v42v97v127v60h-43h-42v-20v-55v-164v-204v-88v-80v-114v-45h42h43z" />
    <glyph glyph-name="i" unicode="i" horiz-adv-x="239" 
d="M160 4v69v159v77v74v111v45h-44h-44v-69v-159v-77v-74v-111v-45h44h44zM65 774v-13v-30v-40v-19h13h30h40h12h7v13v30v40v19h-14h-30h-40h-18z" />
    <glyph glyph-name="j" unicode="j" horiz-adv-x="274" 
d="M44 -123l0.000976562 0.000976562c29.333 0 54 2.33301 74 7s35.333 11.667 46 21v0v0c10 11.333 17.667 27.666 23 48.999c5.33301 22 8 48.667 8 80v43v104v71v72v150v65h-44h-44v-66v-152v-73v-71v-107v-43v0v0c-0.666992 -16 -2.33398 -29 -5.00098 -39
s-6 -17 -10 -21v0v0c-5.33301 -3.33301 -14 -6 -26 -8s-27.667 -3 -47 -3h-22h-21v-40v-39h34h34zM100.001 774.001v-13v-30v-40v-19h18h40h30h14v13v30v40v19h-14h-30h-40h-18z" />
    <glyph glyph-name="k" unicode="k" horiz-adv-x="484" 
d="M141 774h-42h-43v-20v-55v-164v-204v-88v-80v-114v-45h43h42v27v63v83v39l14 13l28 28l22 21l9 9l22 -37l48 -83l64 -111l30 -52h14h33h43h20l-28 44l-64 100l-31 48l-30 47l-45 70l-19 29l26 25l60 59l78 76l37 37h-15h-35h-47h-22l-27 -29l-63 -68l-82 -89l-40 -42v12
v33v99v122v137v60z" />
    <glyph glyph-name="l" unicode="l" horiz-adv-x="225" 
d="M153 4v45v114v80v88v111v107v160v65h-44h-44v-20v-55v-164v-204v-88v-80v-114v-45h44h44z" />
    <glyph glyph-name="m" unicode="m" horiz-adv-x="584" 
d="M517 406v0c0 46.667 -8.33301 81.667 -25 105s-41.334 35 -74.001 35v0v0c-18.667 0 -36 -5.66699 -52 -17c-16 -10.667 -30.667 -27 -44 -49v0v0c-6 22 -14.667 38.333 -26 49c-12 11.333 -26.667 17 -44 17v0v0c-18.667 0 -36 -5.66699 -52 -17
s-31 -28.666 -45 -51.999v31v31h-41h-41v-69v-159v-77v-74v-111v-45h41h41v48v110v54v51v78v31v0v0c0 10.667 2 21.334 6 32.001s10.333 21.667 19 33c8 11.333 16 19.666 24 24.999c7.33301 5.33301 15 8 23 8v0v0c8.66699 0 15.334 -6 20.001 -18s7 -30.333 7 -55v-51
v-118v-57v-55v-83v-33h41h41v49v112v99v81v27v10v0v0c0 10 2 20.333 6 31c3.33301 10.667 9 21.667 17 33v0v0c6 9.33301 13 16.333 21 21c7.33301 4.66699 15.333 7 24 7v0v0c10 0 17.667 -5.33301 23 -16s8 -26.334 8 -47.001v-53v-120v-59v-56v-85v-34h41h41v52v119v58
v55v84v34z" />
    <glyph glyph-name="n" unicode="n" horiz-adv-x="554" 
d="M158 4l0.000976562 39.001v91v119v56v0v0c0 22.667 5 44 15 64s25.333 39 46 57v0v0c14 12.667 29.333 22 46 28s35 9 55 9v0v0c28 0 49.333 -9.33301 64 -28c14.667 -18 22 -45.333 22 -82v-46v-104v-51v-49v-73v-30h42h43v47v107v52v50v75v31v0v0
c0 60 -13.333 105 -40 135s-66.334 45 -119.001 45v0v0c-34 0 -65.333 -8.33301 -94 -25c-29.333 -16.667 -56 -41.334 -80 -74.001v46v46h-43h-42v-69v-159v-77v-74v-111v-45h42h43z" />
    <glyph glyph-name="o" unicode="o" 
d="M263 546c-74.667 0 -130.334 -22.668 -167.001 -68.001c-37.333 -44.667 -56 -112 -56 -202v0v0c0 -93.333 18.333 -163 55 -209c36 -46.667 90.667 -70 164 -70v0v0c32.667 0 62 5.33301 88 16c26 11.333 48.667 27.666 68 48.999v0v0
c20.667 23.333 36.334 52.333 47.001 87s16 75.667 16 123v0v0c0 40.667 -4 76.334 -12 107.001s-19.667 57.334 -35 80.001v0v0c-20 28.667 -44 50 -72 64c-28 14.667 -60 22 -96 22v0v1zM257 465.999c44.667 0 78.001 -16.333 100.001 -49s33 -81.667 33 -147v0v0
c0 -65.333 -11 -114 -33 -146c-22 -32.667 -54.667 -49 -98 -49v0v0c-43.333 0 -76 16.333 -98 49c-22 32 -33 80.667 -33 146v0v0c0 65.333 10.667 114.333 32 147s53.666 49 96.999 49v0v0z" />
    <glyph glyph-name="p" unicode="p" horiz-adv-x="506" 
d="M141 -123v29.001v66v87v41v0v0c20 -26 42.333 -45.333 67 -58c25.333 -13.333 53.333 -20 84 -20v0v0c64 0 112 22.667 144 68s48 113.666 48 204.999v0v0c0 40.667 -5 77 -15 109s-25.333 59.667 -46 83v0v0c-16.667 19.333 -36 34 -58 44s-47 15 -75 15v0v0
c-30 0 -57.333 -7 -82 -21s-47 -35 -67 -63v39v38h-42h-43v-38v-99v-69v-76v-95v-92v-137v-56h43h42zM141 313.001c0 17.333 3 34.668 9 52.001c5.33301 17.333 13.333 34.333 24 51v0v0c12 17.333 26.667 30.666 44 39.999c17.333 8.66699 37 13 59 13v0v0
c40 0 69.667 -15.667 89 -47c20 -31.333 30 -78.666 30 -141.999v0v0c0 -60.667 -9.33301 -106 -28 -136s-47 -45 -85 -45v0v0c-22 0 -42 4 -60 12c-17.333 8 -33 19.667 -47 35v0v0c-11.333 13.333 -20 27.666 -26 42.999c-6 16 -9 32.667 -9 50v37v37v0v0z" />
    <glyph glyph-name="q" unicode="q" horiz-adv-x="508" 
d="M453 539l-43 -0.000976562h-42v-38v-39v0v0c-20 28 -42.333 49 -67 63s-52 21 -82 21v0v0c-28 0 -53 -5 -75 -15s-41.333 -24.667 -58 -44v0v0c-20.667 -23.333 -36 -51 -46 -83s-15 -68.333 -15 -109v0v0c0 -91.333 16 -159.666 48 -204.999s80 -68 144 -68v0v0
c30.667 0 58.667 6.66699 84 20c24.667 12.667 47 32 67 58v-29v-66v-87v-41h42h43v12v32v102v136v95v92v137v56zM368 238.999c0 -17.333 -3 -34.002 -9 -50.002c-6 -15.333 -14.667 -29.666 -26 -42.999v0v0c-14 -15.333 -30 -27 -48 -35c-17.333 -8 -37 -12 -59 -12v0v0
c-38 0 -66.333 15 -85 45s-28 75.333 -28 136v0v0c0 63.333 9.66699 110.666 29 141.999c20 31.333 50 47 90 47v0v0c22 0 41.667 -4.33301 59 -13c17.333 -9.33301 32 -22.666 44 -39.999v0v0c10.667 -16.667 18.667 -33.667 24 -51c6 -17.333 9 -34.666 9 -51.999v-37v-37
v0v0z" />
    <glyph glyph-name="r" unicode="r" horiz-adv-x="344" 
d="M158 4v42.999v99v47v47v69v28v0v0c4 42 21 73.333 51 94c30 20 72.667 29.333 128 28v43v44v0v0c-38 -0.666992 -71.667 -7.66699 -101 -21c-30 -13.333 -56 -33.666 -78 -60.999v38v37h-43h-42v-69v-159v-77v-74v-111v-45h42h43z" />
    <glyph glyph-name="s" unicode="s" horiz-adv-x="474" 
d="M32 164c6 -26.667 13.9961 -49.6689 23.9961 -69.002c10 -20 21.333 -36.333 34 -49v0v0c16.667 -16.667 38.334 -29 65.001 -37s58 -12 94 -12v0v0c24.667 0 47.334 2.66699 68.001 8c20.667 4.66699 39.334 12.334 56.001 23.001v0v0c21.333 13.333 37.333 30 48 50
c11.333 19.333 17 42 17 68v0v0c0 17.333 -2.66699 33.333 -8 48c-4.66699 14.667 -12 28 -22 40v0v0c-7.33301 8.66699 -19.333 17.667 -36 27c-16 10 -37 20.333 -63 31l-46 20l-46 19v0v0c-27.333 11.333 -47.666 23 -60.999 35c-13.333 12.667 -20 25.667 -20 39v0v0
c0 21.333 7.33301 37.666 22 48.999c14.667 10.667 37 16 67 16v0v0c29.333 0 52.333 -7 69 -21s27.334 -34.667 32.001 -62h49h50v0v0c-12 52.667 -34 92.334 -66 119.001c-32.667 26.667 -75.667 40 -129 40v0v0c-26 0 -49 -2.66699 -69 -8
c-20.667 -5.33301 -38.667 -13.666 -54 -24.999v0v0c-20.667 -14.667 -36 -31.334 -46 -50.001c-10 -18 -15 -38.667 -15 -62v0v0c0 -28 11 -53.667 33 -77s55 -44.333 99 -63l13 -5c8 -4 17.667 -8.33301 29 -13l39 -16l19 -8v0v0c23.333 -10 40.666 -21 51.999 -33
c12 -12 18 -25.333 18 -40v0v0c0 -24.667 -8 -43 -24 -55s-40 -18 -72 -18v0v0c-34.667 0 -61.667 7.66699 -81 23c-20 14.667 -32 37.334 -36 68.001h-14h-30h-40h-19v0v0z" />
    <glyph glyph-name="t" unicode="t" horiz-adv-x="348" 
d="M121 452l-0.000976562 -40.998v-95v-125v-59v0v0c0 -24.667 1.66699 -45 5 -61c4 -16.667 9.33301 -28.667 16 -36v0v0c8.66699 -8 21.334 -14 38.001 -18c16 -4 36 -6 60 -6h41h40v39v40h-28h-28v0v0c-11.333 0 -21 0.666992 -29 2s-14.333 3.66602 -19 6.99902v0v0
c-3.33301 2.66699 -6 8.66699 -8 18s-3 21.666 -3 36.999v38v89v116v55h16h37h48h23v40v39h-16h-37h-48h-23v23v54v70v34h-42h-43v-23v-54v-70v-34h-14h-34h-44h-21v-39v-40h15h33h44h21z" />
    <glyph glyph-name="u" unicode="u" horiz-adv-x="554" 
d="M406 539l0.000976562 -39v-91v-119v-57v0v0c0 -22 -5 -43 -15 -63c-10.667 -20 -26 -39.333 -46 -58v0v0c-14 -12 -29.667 -21 -47 -27c-16.667 -6 -34.667 -9 -54 -9v0v0c-28.667 0 -50.334 9 -65.001 27c-14 18 -21 45.333 -21 82v46v105v50v49v74v30h-43h-42v-47v-107
v-52v-50v-75v-31v0v0c0 -60 13 -105 39 -135c26.667 -30 66.667 -45 120 -45v0v0c33.333 0 64.333 8.33301 93 25c29.333 16 56.333 40.333 81 73v-45v-46h42h43v69v159v77v74v111v45h-43h-42z" />
    <glyph glyph-name="v" unicode="v" horiz-adv-x="481" 
d="M279 4l23 69l51 159l46 141l37 114l13 38l4 14h-46h-46l-17 -56l-39 -128l-18 -63c-6.66699 -20.667 -12.667 -40.334 -18 -59.001l-28 -90l-11 -37l-17 56l-38 128l-19 63c-6 20.667 -12 40.334 -18 59.001l-27 90l-11 37h-46h-46l23 -69l51 -159l25 -76l24 -75l36 -111
l15 -45h49h48z" />
    <glyph glyph-name="w" unicode="w" horiz-adv-x="482" 
d="M306 4l41.001 0.00195312h40l11 69l25 159l12 77c4 25.333 7.66699 50 11 74l18 111l7 45h-41h-40l-6 -50l-14 -115c-2.66699 -18 -5 -36.333 -7 -55c-2.66699 -18.667 -5 -36.667 -7 -54l-10 -80l-4 -33l-2 10c-0.666992 6.66699 -2 15.667 -4 27l-13 84l-16 101
l-18 115l-8 50h-46h-45l-8 -50l-18 -115c-2.66699 -18 -5.66699 -36.667 -9 -56c-2.66699 -18.667 -5.33398 -36.334 -8.00098 -53.001l-13 -80l-5 -33l-6 50l-14 115c-2.66699 18 -5 36.333 -7 55c-2.66699 18.667 -5 36.667 -7 54l-10 80l-4 33h-41h-40l11 -69l25 -159
l12 -77c4 -25.333 7.66699 -50 11 -74l18 -111l7 -45h40h41l9 57l21 129l10 63c4 21.333 7.33301 41.666 10 60.999l15 91l6 37l9 -57l21 -129l10 -63l10 -61c5.33301 -36 10 -66.333 14 -91z" />
    <glyph glyph-name="x" unicode="x" horiz-adv-x="474" 
d="M434 539h-47h-48l-13 -24l-31 -56l-40 -73l-20 -34l-13 24l-31 56l-40 73l-20 34h-48h-48l20 -33l45 -74l58 -98l28 -47l-22 -37l-50 -83l-66 -111l-32 -52h14h30h40h18l16 28l34 64l46 84l21 40l16 -28l35 -64l46 -84l21 -40h51h50l-22 37l-50 83l-67 111l-32 52l20 33
l45 74l58 98z" />
    <glyph glyph-name="y" unicode="y" horiz-adv-x="475" 
d="M112 539l-48 0.000976562h-48l24 -58l56 -133l27 -64l26 -62l39 -93l15 -38l-11 -27c-6.66699 -18.667 -15 -40 -25 -64l-33 -82l-16 -40h46h46l5 12l12 32l39 102l52 135l36 95l36 92l52 137l21 56h-47h-48l-16 -44l-36 -100l-18 -48
c-5.33301 -16.667 -11 -32.334 -17 -47.001l-25 -70l-11 -29l-17 44l-39 100c-6.66699 16 -13 32 -19 48l-19 47l-27 70z" />
    <glyph glyph-name="z" unicode="z" horiz-adv-x="462" 
d="M418 11l0.000976562 39.001v40h-54h-112h-85h-37l37 48l84 108l76 98l61 78l20 26l8 10v36v37h-49h-113h-55h-53h-79h-32v-39v-40h35h81h106h51l-37 -47l-84 -108l-74 -96l-61 -78c-8.66699 -10.667 -15.334 -19.334 -20.001 -26.001l-7 -9v-38v-39h50h117h103h84h28h11z
" />
    <glyph glyph-name="braceleft" unicode="{" horiz-adv-x="369" 
d="M292 860l0.000976562 -0.00195312c-54.667 -12.667 -95.334 -32 -122.001 -58c-26.667 -25.333 -39.334 -57.666 -38.001 -96.999v-25v-59v-76v-37v0v0c-0.666992 -28.667 -8.66699 -50.334 -24 -65.001c-14.667 -14.667 -37.334 -23.334 -68.001 -26.001v-26v-27v0v0
c30 -3.33301 52.667 -12.666 68 -27.999s23.333 -37 24 -65v-25v-59v-76v-37v0v0c-1.33301 -38.667 11.334 -71 38.001 -97c26.667 -25.333 67.334 -44.666 122.001 -57.999l11 24l11 24v0v0c-37.333 12 -65.333 27.333 -84 46s-27.334 40.334 -26.001 65.001v26v60v79v37v0
v0c0.666992 30.667 -5.66602 55 -18.999 73c-12.667 18.667 -32 31 -58 37v0v0c25.333 6.66699 44.666 19 57.999 37c12.667 18 19 42.333 19 73v37v79v60v26v0v0c-1.33301 25.333 7.33398 47 26.001 65c18.667 18.667 46.667 34 84 46l-11 24
c-7.33301 16 -11 23.667 -11 23z" />
    <glyph glyph-name="bar" unicode="|" horiz-adv-x="265" 
d="M168 -82v17v46v145v193v135v131v196v79h-36h-36v-17v-46v-145v-193v-248v-202v-67v-24h36h36z" />
    <glyph glyph-name="braceright" unicode="}" horiz-adv-x="371" 
d="M25 812c37.333 -12 65.001 -27.332 83.001 -45.999c18.667 -18 27.667 -39.667 27 -65v-26v-60v-79v-37v0v0c0 -30.667 6.33301 -55 19 -73s32 -30.333 58 -37v0v0c-26 -6 -45.667 -18.333 -59 -37c-12.667 -18 -18.667 -42.333 -18 -73v-26v-60v-79v-37v0v0
c0.666992 -24.667 -8.33301 -46.334 -27 -65.001c-18 -18.667 -45.667 -34 -83 -46l11 -24l11 -24v0v0c54 12.667 94.333 32 121 58s39.667 58.333 39 97v25v59v76v37v0v0c0 28.667 7.66699 50.667 23 66c16 15.333 39 24.333 69 27v27v26v0v0
c-30.667 2.66699 -53.667 11.334 -69 26.001c-15.333 15.333 -23 37.333 -23 66v25v59v76v37v0v0c1.33301 39.333 -11.334 71.666 -38.001 96.999c-27.333 26 -68 45.333 -122 58l-11 -24l-11 -24v0v0z" />
    <glyph glyph-name="asciitilde" unicode="~" horiz-adv-x="559" 
d="M112 658c12.667 14.667 25.334 25.335 38.001 32.002c12.667 7.33301 25 11 37 11v0v0c6.66699 0 13 -0.666992 19 -2c6.66699 -0.666992 13 -2.33398 19 -5.00098l45 -18l44 -18v0v0c9.33301 -3.33301 18.333 -6 27 -8c8 -2 16 -3 24 -3v0v0
c23.333 0 45.333 8.33301 66 25c21.333 16 41.333 40.333 60 73l-16 12l-16 13v0v0c-12 -14.667 -24.667 -25.334 -38 -32.001c-12.667 -7.33301 -25.334 -11 -38.001 -11v0v0c-6 0 -12 0.666992 -18 2c-6.66699 0.666992 -13 2.33398 -19 5.00098l-44 18l-45 18v0v0
c-9.33301 3.33301 -18.333 6 -27 8c-8 2 -16 3 -24 3v0v0c-22.667 0 -44.667 -8.33301 -66 -25c-20.667 -16.667 -40.667 -41.334 -60 -74.001l16 -12l16 -12v0v0z" />
    <glyph glyph-name="nonbreakingspace" unicode="&#xa0;" horiz-adv-x="10" 
 />
    <glyph glyph-name="section" unicode="&#xa7;" horiz-adv-x="584" 
d="M209 540c-46 -14.667 -80.6699 -33.3301 -104.003 -55.9971c-22.667 -22.667 -34 -49.667 -34 -81v0v0c0 -17.333 3.33301 -33.333 10 -48c6 -14.667 15.333 -27.667 28 -39v0v0c12.667 -11.333 32.334 -23.333 59.001 -36c27.333 -12.667 62 -25.667 104 -39v0v0
c42.667 -14.667 77.334 -27.334 104.001 -38.001c26.667 -11.333 45 -21.333 55 -30v0v0c6.66699 -5.33301 12 -11.666 16 -18.999c3.33301 -8 5 -16.667 5 -26v0v0c0 -8.66699 -1.66699 -17 -5 -25c-2.66699 -8 -7.33398 -15.333 -14.001 -22v0v0
c-12.667 -13.333 -28.667 -23.333 -48 -30c-20 -6.66699 -43.667 -10 -71 -10v0v0c-50.667 0 -90.667 10.667 -120 32s-47.666 53.666 -54.999 96.999h-50h-50v0v0c14 -69.333 43.333 -121.333 88 -156s104.667 -52 180 -52v0v0c39.333 0 74 4.33301 104 13
c30 9.33301 55.667 22.666 77 39.999v0v0c18.667 15.333 32.334 32.666 41.001 51.999c9.33301 18.667 14 39.334 14 62.001v0v0c0 30 -10.667 57 -32 81s-53.333 44.667 -96 62v0v0c8 2 16.333 5 25 9c9.33301 4 18.666 9.33301 27.999 16v0v0
c21.333 14.667 37.333 31 48 49s16 38.333 16 61v0v0c0 33.333 -14 62.666 -42 87.999s-70.333 46.666 -127 63.999v0v0c-63.333 19.333 -110.666 37.666 -141.999 54.999c-31.333 18 -47 35.333 -47 52v0v0c0 22.667 10.667 40 32 52c20.667 11.333 52.334 17 95.001 17v0
v0c40.667 0 72.667 -8.66699 96 -26c23.333 -18 37.666 -44.333 42.999 -79h47h47v0v0c-11.333 61.333 -36.666 107.333 -75.999 138c-38.667 30.667 -91.334 46 -158.001 46v0v0c-37.333 0 -70 -4.33301 -98 -13c-28.667 -9.33301 -53 -22.666 -73 -39.999v0v0
c-15.333 -13.333 -26.666 -28 -33.999 -44s-11 -33 -11 -51v0v0c0 -22.667 10.333 -44.667 31 -66c21.333 -21.333 52.666 -41.666 93.999 -60.999v0v1zM308.997 498.004c28.667 -9.33301 52.668 -18.6689 72.001 -28.002c19.333 -8.66699 34.333 -17 45 -25v0v0
c5.33301 -4.66699 9.66602 -10.334 12.999 -17.001c2.66699 -7.33301 4 -15.666 4 -24.999v0v0c0 -29.333 -10.667 -51.666 -32 -66.999c-22 -15.333 -54.333 -24 -97 -26v0v0c-34.667 11.333 -63.667 22.333 -87 33s-40.666 20.667 -51.999 30v0v0c-5.33301 4 -9 9 -11 15
c-2.66699 6 -4 13 -4 21v0v0c0 27.333 12.333 48.333 37 63c25.333 14.667 62.666 23.334 111.999 26.001v0v0z" />
    <glyph glyph-name="dieresis" unicode="&#xa8;" horiz-adv-x="374" 
d="M25 901v-47v-47h47h47v47v47h-47h-47zM240 901v-47v-47h47h47v47v47h-47h-47z" />
    <glyph glyph-name="degree" unicode="&#xb0;" horiz-adv-x="376" 
d="M196 860c-20.667 0 -39.668 -3.33301 -57.001 -10s-33.333 -16.667 -48 -30v0v0c-17.333 -15.333 -30 -32.333 -38 -51c-8.66699 -18.667 -13 -39 -13 -61v0v0c0 -20 3.33301 -38.667 10 -56s16.667 -33.333 30 -48v0v0c14.667 -17.333 31.667 -30 51 -38
c18.667 -8.66699 39.667 -13 63 -13v0v0c19.333 0 37.666 3.33301 54.999 10c16.667 6.66699 32.334 16.667 47.001 30v0v0c16.667 15.333 29.334 32.333 38.001 51s13 39.667 13 63v0v0c0 19.333 -3.33301 37.666 -10 54.999c-6.66699 16.667 -16.667 32.334 -30 47.001v0
v0c-15.333 17.333 -32.333 30 -51 38c-18.667 8.66699 -38.667 13 -60 13v0v0zM191.999 800c12.667 0 24.334 -2.00195 35.001 -6.00195s20.334 -10 29.001 -18v0v0c10.667 -9.33301 18.334 -19.666 23.001 -30.999c5.33301 -12 8 -24.667 8 -38v0v0
c0 -12 -2 -23.333 -6 -34c-4 -10 -10 -19.667 -18 -29v0v0c-9.33301 -10.667 -20 -18.334 -32 -23.001c-11.333 -5.33301 -23.666 -8 -36.999 -8v0v0c-12 0 -23.333 2 -34 6s-20.334 10 -29.001 18v0v0c-10.667 9.33301 -18.334 20 -23.001 32c-5.33301 11.333 -8 24 -8 38
v0v0c0 11.333 2 22.333 6 33s10 20.334 18 29.001v0v0c9.33301 10.667 19.666 18.334 30.999 23.001c11.333 5.33301 23.666 8 36.999 8v0v0z" />
    <glyph glyph-name="plusminus" unicode="&#xb1;" horiz-adv-x="1024" 
d="M548 230v33v75v100v47h39h91h119h57v36v36h-39h-91h-119h-57v33v75v98v47h-36h-36v-33v-75v-98v-47h-57h-119h-91h-39v-36v-36h39h91h119h57v-33v-75v-100v-47h36h36zM854 73v36v36h-12h-34h-105h-140h-15h-83h-95h-142h-58v-36v-36h12h34h105h140h180h147h48h18z" />
    <glyph glyph-name="twosuperior" unicode="&#xb2;" horiz-adv-x="1024" 
 />
    <glyph glyph-name="threesuperior" unicode="&#xb3;" horiz-adv-x="1024" 
 />
    <glyph glyph-name="acute" unicode="&#xb4;" horiz-adv-x="396" 
d="M108 751l33 10l76 22l100 30l47 14l-22 37l-23 37l-30 -14l-68 -32l-89 -42l-43 -20l10 -21z" />
    <glyph glyph-name="mu" unicode="&#xb5;" horiz-adv-x="1024" 
 />
    <glyph glyph-name="paragraph" unicode="&#xb6;" horiz-adv-x="564" 
d="M288 833l0.00195312 0.000976562c-38 0 -71.667 -5 -101 -15c-30 -10 -55.333 -24.667 -76 -44v0v0c-23.333 -22 -41 -47.333 -53 -76s-18 -60.667 -18 -96v0v0c0 -44.667 5.66699 -82.334 17 -113.001c11.333 -31.333 28.666 -55.666 51.999 -72.999v0v0
c16.667 -12.667 37 -23.334 61 -32.001c23.333 -8.66699 49.666 -14.667 78.999 -18v-54v-125v-60v-58v-87v-36h38h38v14v40v126v166v117v113v168v69h13h31h40h19v-14v-40v-126v-166v-117v-113v-168v-69h38h38v14v40v126v166v117v113v168v69h25h25v37v37h-49h-104h-79h-34z
" />
    <glyph glyph-name="Agrave" unicode="&#xc0;" horiz-adv-x="474" 
d="M384 4h45h45l-3 14l-9 38l-28 120l-38 158l-26 113l-26 107l-38 162l-16 65h-45h-45l-3 -14l-9 -38l-28 -120l-38 -158l-26 -113l-26 -107l-38 -162l-16 -65h45h45l7 29l14 66c6.66699 30 12.667 59 18 87l9 41h24h54h71h33l7 -29l14 -66c6.66699 -30 12.667 -59 18 -87z
M171 306l10 44c6 29.333 13.333 63 22 101l10 49l11 47l15 71l6 29l10 -44c6 -29.333 13.333 -63 22 -101l10 -49l11 -47l15 -71l6 -29h-19h-44h-57h-28zM90 977l-22 -37l-22 -37l33 -10l76 -22l99 -30l47 -14l10 21l10 21l-29 14l-69 32l-90 42z" />
    <glyph glyph-name="Aacute" unicode="&#xc1;" horiz-adv-x="473" 
d="M384 4h45h45l-3 14l-9 38l-28 120l-38 158l-26 113l-26 107l-38 162l-16 65h-45h-45l-3 -14l-9 -38l-28 -120l-38 -158l-26 -113l-26 -107l-38 -162l-16 -65h45h45l7 29l14 66c6.66699 30 12.667 59 18 87l9 41h24h54h71h33l7 -29l14 -66c6.66699 -30 12.667 -59 18 -87z
M171 306l10 44c6 29.333 13.333 63 22 101l10 49l11 47l15 71l6 29l10 -44c6 -29.333 13.333 -63 22 -101l10 -49l11 -47l15 -71l6 -29h-19h-44h-57h-28zM196 818l33 10l76 22l100 30l47 14l-22 37l-23 37l-30 -14l-68 -32l-89 -42l-43 -20l10 -21z" />
    <glyph glyph-name="Acircumflex" unicode="&#xc2;" horiz-adv-x="473" 
d="M384 4h45h45l-3 14l-9 38l-28 120l-38 158l-26 113l-26 107l-38 162l-16 65h-45h-45l-3 -14l-9 -38l-28 -120l-38 -158l-26 -113l-26 -107l-38 -162l-16 -65h45h45l7 29l14 66c6.66699 30 12.667 59 18 87l9 41h24h54h71h33l7 -29l14 -66c6.66699 -30 12.667 -59 18 -87z
M171 306l10 44c6 29.333 13.333 63 22 101l10 49l11 47l15 71l6 29l10 -44c6 -29.333 13.333 -63 22 -101l10 -49l11 -47l15 -71l6 -29h-19h-44h-57h-28zM192 973l-18 -18l-39 -37l-30 -28l-13 -13l16 -18l15 -18l16 10c10.667 6.66699 23 14 37 22l47 30l23 14l16 -10
c10.667 -6.66699 23 -14 37 -22l48 -30l23 -14l16 18l15 18l-18 18l-40 37l-30 29l-13 12h-20h-42h-32h-14z" />
    <glyph glyph-name="Atilde" unicode="&#xc3;" horiz-adv-x="473" 
d="M384 4h45h45l-3 14l-9 38l-28 120l-38 158l-26 113l-26 107l-38 162l-16 65h-45h-45l-3 -14l-9 -38l-28 -120l-38 -158l-26 -113l-26 -107l-38 -162l-16 -65h45h45l7 29l14 66c6.66699 30 12.667 59 18 87l9 41h24h54h71h33l7 -29l14 -66c6.66699 -30 12.667 -59 18 -87z
M171 306l10 44c6 29.333 13.333 63 22 101l10 49l11 47l15 71l6 29l10 -44c6 -29.333 13.333 -63 22 -101l10 -49l11 -47l15 -71l6 -29h-19h-44h-57h-28zM84 865c12.667 14.667 25.3359 25.334 38.0029 32.001c12 7.33301 24.333 11 37 11v0v0c6.66699 0 13 -0.666992 19 -2
c6 -0.666992 12.333 -2.33398 19 -5.00098l45 -18l44 -18v0v0c9.33301 -3.33301 18 -6 26 -8c8.66699 -2 17 -3 25 -3v0v0h5c21.333 1.33301 41.666 9.33301 60.999 24c21.333 16.667 41.333 41.334 60 74.001l-16 12l-16 13v0v0
c-12.667 -14.667 -25.334 -25.667 -38.001 -33c-12.667 -6.66699 -25.334 -10 -38.001 -10v0v0c-6.66699 0 -13 0.333008 -19 1c-6 1.33301 -12 3.33301 -18 6l-44 18l-45 18v0v0c-9.33301 3.33301 -18.333 6 -27 8s-16.667 3 -24 3v0v0c-22.667 0 -44.667 -8.33301 -66 -25
c-20.667 -16.667 -40.667 -41.334 -60 -74.001l16 -12l16 -12v0v0z" />
    <glyph glyph-name="Adieresis" unicode="&#xc4;" horiz-adv-x="473" 
d="M384 4h45h45l-3 14l-9 38l-28 120l-38 158l-26 113l-26 107l-38 162l-16 65h-45h-45l-3 -14l-9 -38l-28 -120l-38 -158l-26 -113l-26 -107l-38 -162l-16 -65h45h45l7 29l14 66c6.66699 30 12.667 59 18 87l9 41h24h54h71h33l7 -29l14 -66c6.66699 -30 12.667 -59 18 -87z
M171 306l10 44c6 29.333 13.333 63 22 101l10 49l11 47l15 71l6 29l10 -44c6 -29.333 13.333 -63 22 -101l10 -49l11 -47l15 -71l6 -29h-19h-44h-57h-28zM95 973v-47v-47h47h47v47v47h-47h-47zM310 973v-47v-47h47h47v47v47h-47h-47z" />
    <glyph glyph-name="Aring" unicode="&#xc5;" horiz-adv-x="457" 
d="M368 4h45h45l-3 14c-2.66699 8.66699 -5.66699 21.334 -9 38.001l-29 120l-37 158l-27 113l-25 107l-39 162l-15 65h-43h-2h-45l-3 -14c-2.66699 -8.66699 -5.66699 -21.334 -9 -38.001l-29 -120l-37 -158l-27 -113l-25 -107l-39 -162l-15 -65h45h45l6 29l14 66l19 87
l9 41h24h53h71h34l6 -29l14 -66l19 -87zM155 306l10.002 44l21 101c4 16 7.66699 32.333 11 49s6.66602 32.334 9.99902 47.001c6 28 11.333 51.667 16 71l6 29l10 -44l21 -101c4 -16 7.66699 -32.333 11 -49s6.66602 -32.334 9.99902 -47.001c6 -28 11.333 -51.667 16 -71
l6 -29h-19h-44h-58h-27zM231.002 983c-9.33301 0 -18.335 -1.66602 -27.002 -4.99902c-8 -3.33301 -15.333 -8 -22 -14v0v0c-8 -7.33301 -14 -15.333 -18 -24s-6 -18.334 -6 -29.001v0v0c0 -9.33301 1.33301 -18 4 -26c3.33301 -8.66699 8 -16.334 14 -23.001v0v0
c7.33301 -8 15.333 -14 24 -18c9.33301 -4 19.333 -6 30 -6v0v0c4 0 8 0.333008 12 1c4.66699 0.666992 9.33398 2 14.001 4c8 2.66699 15.333 7.33398 22 14.001v0v0c8 6.66699 14 14.667 18 24c4 8.66699 6 18.667 6 30v0v0c0 8.66699 -1.33301 17 -4 25
c-3.33301 8 -8 15.667 -14 23v0v0c-7.33301 8 -15.666 14 -24.999 18c-8.66699 4 -18 6 -28 6v0v0zM209 937.001c3.33301 2.66699 7.33301 4.66895 12 6.00195c4 1.33301 8 1.66602 12 0.999023v0v0c5.33301 -0.666992 10 -2.33398 14 -5.00098c4 -2 7.66699 -5 11 -9v0v0
c2.66699 -4 4.66699 -8 6 -12c0.666992 -4 1 -8.33301 1 -13v0v0c-0.666992 -4.66699 -2.33398 -9.33398 -5.00098 -14.001c-2 -4 -5 -7.33301 -9 -10v0v0c-4 -2.66699 -8 -4.66699 -12 -6s-8.33301 -1.66602 -13 -0.999023v0v0c-5.33301 0.666992 -10 2 -14 4
c-4 2.66699 -7.66699 6 -11 10v0v0c-2 4 -3.66699 8 -5 12s-1.66602 8 -0.999023 12v0v0c0.666992 5.33301 2 10 4 14c2.66699 4 6 7.66699 10 11v0v0z" />
    <glyph glyph-name="Ccedilla" unicode="&#xc7;" horiz-adv-x="507" 
d="M471 560c-8 74 -28.001 129.667 -60.001 167c-32 36.667 -76.333 55 -133 55v0v0c-40.667 0 -76 -9.33301 -106 -28s-54.667 -46.334 -74 -83.001v0v0c-19.333 -36.667 -34 -78.667 -44 -126c-9.33301 -48 -14 -101.333 -14 -160v0v0c0 -129.333 20 -226.333 60 -291
c37.333 -60.667 92 -93 164 -97h15v0v0c54.667 0 99.334 19.667 134.001 59c34.667 40 58.667 99.667 72 179h-48h-47v0v0c-9.33301 -51.333 -24 -89.666 -44 -114.999c-19.333 -25.333 -44.333 -38 -75 -38v0v0c-46.667 0 -81.667 24.667 -105 74s-35 123.666 -35 222.999
v0v0c0 106 12.333 185.667 37 239c24 52.667 60.333 79 109 79v0v0c28 0 50.333 -11.333 67 -34c16 -23.333 26.667 -57.666 32 -102.999h47h48v0v0zM252.999 -2l25.001 0.000976562h23l-16 -56c4.66699 1.33301 9 2.33301 13 3h11c24.667 0.666992 43 -5.66602 55 -18.999
c12.667 -13.333 19 -28.666 19 -45.999c0 -2.66699 -0.333008 -5.66699 -1 -9c0 -2.66699 -0.333008 -5.33398 -1 -8.00098c-4 -22 -17 -42 -39 -60c-21.333 -18 -51.666 -27 -90.999 -27c-18 0 -37.667 2.33301 -59 7c-20.667 4 -43.334 11.667 -68.001 23l24 47
c22 -10.667 41.333 -18.334 58 -23.001s31 -7 43 -7c17.333 0 30 4.33301 38 13c8 8 12 17 12 27v2v1c-0.666992 10 -4.33398 19 -11.001 27c-7.33301 8 -15.666 12 -24.999 12c-4 0 -8.33301 -0.666992 -13 -2c-4.66699 -2 -9.33398 -4.66699 -14.001 -8
c-3.33301 1.33301 -8.33301 3.66602 -15 6.99902l32 96v0z" />
    <glyph glyph-name="Egrave" unicode="&#xc8;" horiz-adv-x="583" 
d="M536 11v43v42h-45h-104h-50h-49h-72h-29v33v77v101v48h37h87h114h55v43v42h-38h-87h-114h-54v31v72v94v45h9h24h75h92h104h45v42v43h-57h-130h-115h-94h-31h-11v-13v-37v-117v-154v-200v-162v-53v-20h56h130h63h61h91h37zM140 957l-22 -37l-22 -37l33 -10l76 -23l99 -29
l47 -14l10 21l10 21l-30 14l-68 32l-90 42z" />
    <glyph glyph-name="Eacute" unicode="&#xc9;" horiz-adv-x="581" 
d="M534 11v43v42h-45h-103h-50h-49h-72h-30v33v77v101v48h38h87h114h54v43v42h-38h-86h-115h-54v31v72v94v45h9h25h75h92h103h45v42v43h-56h-7h-123h-115h-94h-31h-12v-13v-37v-117v-154v-200v-162v-53v-20h57h130h63h60h91h37zM260 809l34 10v0l75 22l100 30l47 14l-22 37
l-23 37l-29 -14l-68 -32l-90 -42l-43 -20l10 -21z" />
    <glyph glyph-name="Ecircumflex" unicode="&#xca;" horiz-adv-x="581" 
d="M534 11v43v42h-45h-103h-50h-49h-72h-30v33v77v101v48h38h87h114h54v43v42h-38h-86h-115h-54v31v72v94v45h9h25h75h92h103h45v42v43h-56h-130h-81h-34h-94h-31h-12v-13v-37v-117v-154v-200v-162v-53v-20h57h130h63h60h91h37zM267 965l-13 -13l-30 -28l-39 -37l-18 -18
l15 -18l16 -18l23 14l47 30c14 8 26.333 15.333 37 22l16 10l16 -10l36 -22l49 -30l23 -14l15 18l16 18l-13 12l-30 29l-40 37l-18 18h-14h-32h-42h-20z" />
    <glyph glyph-name="Edieresis" unicode="&#xcb;" horiz-adv-x="581" 
d="M534 11v43v42h-45h-103h-50h-49h-72h-30v33v77v101v48h38h87h114h54v43v42h-38h-86h-115h-54v31v72v94v45h9h25h75h92h103h45v42v43h-56h-130h-115h-74h-20h-31h-12v-13v-37v-117v-154v-200v-162v-53v-20h57h130h63h60h91h37zM159 938v-47v-47h47h47v47v47h-47h-47z
M374 938v-47v-47h47h47v47v47h-47h-47z" />
    <glyph glyph-name="Igrave" unicode="&#xcc;" horiz-adv-x="454" 
d="M357 4v45v114v80v88v111v107v160v65h-45h-46v-20v-55v-164v-204v-88v-80v-114v-45h46h45zM140 970l-22 -37l-22 -37l33 -10l76 -23l99 -29l47 -14l10 21l10 21l-30 14l-68 32l-90 42z" />
    <glyph glyph-name="Iacute" unicode="&#xcd;" horiz-adv-x="311" 
d="M205 4v45v114v80v88v111v107v160v65h-45h-46v-20v-55v-164v-204v-88v-80v-114v-45h46h45zM115 811l33 9l76 23l100 30l47 14l-22 37l-23 37l-30 -14l-68 -32l-89 -42l-43 -20l10 -21z" />
    <glyph glyph-name="Icircumflex" unicode="&#xce;" horiz-adv-x="312" 
d="M199 4v45v114v80v88v111v107v160v65h-45h-46v-20v-55v-164v-204v-88v-80v-114v-45h46h45zM102 942l-13 -13l-29 -28l-39 -38l-19 -17l16 -18l15 -18l23 14l48 29l36 23l16 10l16 -10l37 -23l48 -29l23 -14l16 18l15 18l-13 12l-30 28l-39 38l-19 18h-14h-32h-42h-20z" />
    <glyph glyph-name="Idieresis" unicode="&#xcf;" horiz-adv-x="314" 
d="M196 4v45v114v80v88v111v107v160v65h-46h-45v-20v-55v-164v-204v-88v-80v-114v-45h45h46zM1 962v-47v-47h47h47v47v47h-47h-47zM216 962v-47v-47h47h47v47v47h-47h-47z" />
    <glyph glyph-name="Ntilde" unicode="&#xd1;" horiz-adv-x="581" 
d="M170 4v78v179v87v84v125v51l14 -35l35 -90l25 -63l27 -69l63 -159l51 -130l17 -42l6 -16h13h32h40h20v45v114v80v88v111v107v160v65h-45h-44v-78v-179v-87v-84v-125v-51l-4 11l-12 29l-37 93l-48 124l-35 87l-33 84l-49 125l-20 51h-14h-31h-41h-19v-20v-55v-164v-204
v-88v-80v-114v-45h44h45zM122 845c12.667 14.667 25.334 25.334 38.001 32.001c12.667 7.33301 25 11 37 11v0v0c6.66699 0 13 -0.666992 19 -2c6.66699 -0.666992 13 -2.33398 19 -5.00098l45 -18l44 -18v0v0c9.33301 -3.33301 18.333 -6 27 -8c8 -2 16 -3 24 -3v0v0
c23.333 0 45.333 8.33301 66 25c21.333 16 41.333 40.333 60 73l-16 13l-16 12v0v0c-12 -14.667 -24.667 -25.334 -38 -32.001c-12.667 -7.33301 -25.334 -11 -38.001 -11v0v0c-6 0 -12 0.666992 -18 2c-6.66699 0.666992 -13 2.33398 -19 5.00098l-44 18l-45 18v0v0
c-9.33301 3.33301 -18.333 6 -27 8c-8 2 -16 3 -24 3v0v0c-22.667 0 -44.667 -8.33301 -66 -25c-20.667 -16 -40.667 -40.667 -60 -74l16 -12l16 -12v0v0z" />
    <glyph glyph-name="Ograve" unicode="&#xd2;" horiz-adv-x="517" 
d="M266 781c-26 0 -49.999 -4.00098 -71.999 -12.001c-40.667 -14.667 -73.334 -43.667 -98.001 -87c-37.333 -66 -56 -164.667 -56 -296v0v0c0 -129.333 18.333 -226.666 55 -291.999c37.333 -64.667 93 -97 167 -97v0v0c74 0 129.333 32.667 166 98
c37.333 65.333 56 163.333 56 294v0v0c0 130.667 -18.333 228.667 -55 294c-36 65.333 -90.333 98 -163 98v0v0zM260.001 695.999c44.667 0 78.001 -25.999 100.001 -77.999s33 -129.667 33 -233v0v0c0 -100.667 -11 -176.334 -33 -227.001s-54.667 -76 -98 -76v0v0
c-43.333 0 -76 25.333 -98 76c-22 51.333 -33 128 -33 230v0v0c0 102.667 10.667 179.667 32 231s53.666 77 96.999 77v0v0zM116.002 987l-22 -37l-22 -37l33 -10l75 -23l100 -29l47 -14l10 21l10 21l-30 14l-68 32l-90 42z" />
    <glyph glyph-name="Oacute" unicode="&#xd3;" horiz-adv-x="517" 
d="M266 781c-75.333 0 -132 -33.001 -170 -99.001c-37.333 -66 -56 -164.667 -56 -296v0v0c0 -129.333 18.333 -226.666 55 -291.999c37.333 -64.667 93 -97 167 -97v0v0c74 0 129.333 32.667 166 98c37.333 65.333 56 163.333 56 294v0v0
c0 130.667 -18.333 228.667 -55 294c-22 40 -51 67.667 -87 83c-22.667 10 -48 15 -76 15v0v0zM260 695.999c44.667 0 78.001 -25.999 100.001 -77.999s33 -129.667 33 -233v0v0c0 -100.667 -11 -176.334 -33 -227.001s-54.667 -76 -98 -76v0v0c-43.333 0 -76 25.333 -98 76
c-22 51.333 -33 128 -33 230v0v0c0 102.667 10.667 179.667 32 231s53.666 77 96.999 77v0v0zM217.001 819l33 9l76 23l100 29l47 15l-22 37l-23 37l-42 -20l-90 -42l-68 -32l-30 -14l10 -21z" />
    <glyph glyph-name="Ocircumflex" unicode="&#xd4;" horiz-adv-x="517" 
d="M266 781c-10 0 -19.999 -0.668945 -29.999 -2.00195c-60.667 -7.33301 -107.334 -39.666 -140.001 -96.999c-37.333 -66 -56 -164.667 -56 -296v0v0c0 -129.333 18.333 -226.666 55 -291.999c37.333 -64.667 93 -97 167 -97v0v0c74 0 129.333 32.667 166 98
c37.333 65.333 56 163.333 56 294v0v0c0 130.667 -18.333 228.667 -55 294c-36 65.333 -90.333 98 -163 98v0v0zM260.001 695.998c44.667 0 78.001 -25.999 100.001 -77.999s33 -129.667 33 -233v0v0c0 -100.667 -11 -176.334 -33 -227.001s-54.667 -76 -98 -76v0v0
c-43.333 0 -76 25.333 -98 76c-22 51.333 -33 128 -33 230v0v0c0 102.667 10.667 179.667 32 231s53.666 77 96.999 77v0v0zM215.002 946.999l-18 -17l-39 -38l-30 -28l-13 -13l16 -18l15 -18l16 10l37 23l47 29l23 14l16 -9l37 -23l48 -30l23 -14l16 18l15 18l-13 13
l-30 28l-39 38l-19 17h-14h-32h-42h-20z" />
    <glyph glyph-name="Otilde" unicode="&#xd5;" horiz-adv-x="517" 
d="M266 781c-15.333 0 -30 -1.33301 -44 -4c-54 -10.667 -96 -42.334 -126 -95.001c-37.333 -66 -56 -164.667 -56 -296v0v0c0 -129.333 18.333 -226.666 55 -291.999c37.333 -64.667 93 -97 167 -97v0v0c74 0 129.333 32.667 166 98c37.333 65.333 56 163.333 56 294v0v0
c0 130.667 -18.333 228.667 -55 294c-36 65.333 -90.333 98 -163 98v0v0zM260 696c44.667 0 78.001 -25.999 100.001 -77.999s33 -129.667 33 -233v0v0c0 -100.667 -11 -176.334 -33 -227.001s-54.667 -76 -98 -76v0v0c-43.333 0 -76 25.333 -98 76
c-22 51.333 -33 128 -33 230v0v0c0 102.667 10.667 179.667 32 231s53.666 77 96.999 77v0v0zM92.001 835.001c12.667 14.667 25.3359 25.667 38.0029 33c12 6.66699 24.333 10 37 10v0v0c6.66699 0 13 -0.333008 19 -1c6 -1.33301 12.333 -3.33301 19 -6l45 -18l44 -18v0v0
c9.33301 -3.33301 18 -6 26 -8c5.33301 -1.33301 10.666 -2 15.999 -2c3.33301 -0.666992 6.33301 -1 9 -1v0v0c23.333 0 45.333 8.33301 66 25c21.333 16.667 41.333 41 60 73l-16 13l-16 12v0v0c-12.667 -14 -25.334 -24.667 -38.001 -32s-25.334 -11 -38.001 -11v0v0
c-6.66699 0 -13 0.666992 -19 2s-12 3 -18 5l-44 18l-45 18v0v0c-9.33301 4 -18.333 6.66699 -27 8c-8.66699 2 -16.667 3 -24 3v0v0c-22.667 0 -44.667 -8 -66 -24c-20.667 -16.667 -40.667 -41.667 -60 -75l16 -12l16 -12v0v0z" />
    <glyph glyph-name="Odieresis" unicode="&#xd6;" horiz-adv-x="517" 
d="M266 781c-30 0 -56.667 -5.00098 -80 -15.001c-36.667 -16 -66.667 -44 -90 -84c-37.333 -66 -56 -164.667 -56 -296v0v0c0 -129.333 18.333 -226.666 55 -291.999c37.333 -64.667 93 -97 167 -97v0v0c74 0 129.333 32.667 166 98c37.333 65.333 56 163.333 56 294v0v0
c0 130.667 -18.333 228.667 -55 294c-36 65.333 -90.333 98 -163 98v0v0zM260 695.999c44.667 0 78.001 -25.999 100.001 -77.999s33 -129.667 33 -233v0v0c0 -100.667 -11 -176.334 -33 -227.001s-54.667 -76 -98 -76v0v0c-43.333 0 -76 25.333 -98 76
c-22 51.333 -33 128 -33 230v0v0c0 102.667 10.667 179.667 32 231s53.666 77 96.999 77v0v0zM105.001 955v-47v-47h47h47v47v47h-47h-47zM320.001 955v-47v-47h47h47v47v47h-47h-47z" />
    <glyph glyph-name="multiply" unicode="&#xd7;" horiz-adv-x="1024" 
d="M822 648l-25 26l-26 25l-7 -7l-18 -18l-56 -55l-68 -68l-76 -77l-34 -33l-33 33l-77 77l-37 37l-36 36l-53 53l-22 22l-26 -25l-26 -26l34 -34l76 -76l68 -68l56 -56l18 -18l7 -7l-34 -33l-76 -77l-38 -37l-35 -36l-54 -53l-22 -22l26 -26l26 -26l33 34l77 76l37 38
l36 35l53 54l22 22l7 -7l18 -18l56 -56l68 -68l76 -76l34 -34l26 26l25 26l-33 33l-77 77l-68 68l-55 55l-18 18l-7 7l33 34l77 76l68 68l55 56l18 18z" />
    <glyph glyph-name="Ugrave" unicode="&#xd9;" horiz-adv-x="589" 
d="M81 217h0.00195312c0 -73.333 18 -128.666 54 -165.999c36 -36.667 90 -55 162 -55v0v0c72 0 126 18.333 162 55c36 37.333 54 92.666 54 165.999v72v165v147v119v40v14h-45h-44v-71v-164v-79v-77v-114v-47v0v0c0 -46.667 -10.667 -82 -32 -106
c-20.667 -23.333 -52.334 -35 -95.001 -35v0v0c-42.667 0 -74.334 11.667 -95.001 35c-21.333 24 -32 59.333 -32 106v71v164v146v118v39v14h-28h-17h-44v-72v-165v-80v-77v-116v-47zM142.002 969l-22 -37l-22 -37l33 -10l75 -23l100 -29l47 -14l10 21l10 21l-30 14l-68 32
l-90 42z" />
    <glyph glyph-name="Uacute" unicode="&#xda;" horiz-adv-x="589" 
d="M81 217h0.00195312c0 -73.333 18 -128.666 54 -165.999c36 -36.667 90 -55 162 -55v0v0c72 0 126 18.333 162 55c36 37.333 54 92.666 54 165.999v72v165v147v119v40v14h-45h-2h-42v-71v-164v-79v-77v-114v-47v0v0c0 -46.667 -10.667 -82 -32 -106
c-20.667 -23.333 -52.334 -35 -95.001 -35v0v0c-42.667 0 -74.334 11.667 -95.001 35c-21.333 24 -32 59.333 -32 106v71v164v146v118v39v14h-45h-44v-72v-165v-80v-77v-116v-47zM256.002 828l33 10l76 22l99 30l48 14l-23 37l-22 37l-43 -20l-89 -42l-68 -32l-30 -14l9 -21
z" />
    <glyph glyph-name="Ucircumflex" unicode="&#xdb;" horiz-adv-x="589" 
d="M81 217h0.00195312c0 -73.333 18 -128.666 54 -165.999c36 -36.667 90 -55 162 -55v0v0c72 0 126 18.333 162 55c36 37.333 54 92.666 54 165.999v72v165v147v119v40v14h-45h-44v-71v-164v-79v-77v-114v-47v0v0c0 -46.667 -10.667 -82 -32 -106
c-20.667 -23.333 -52.334 -35 -95.001 -35v0v0c-42.667 0 -74.334 11.667 -95.001 35c-21.333 24 -32 59.333 -32 106v71v164v146v118v39v14h-45h-44v-72v-165v-80v-77v-116v-47zM241.002 962l-13 -12l-30 -29c-14 -12.667 -27 -25 -39 -37l-18 -18l15 -18l16 -18l15 10
l37 23l48 29l23 14l16 -10c10.667 -6 22.667 -13.333 36 -22l49 -30l23 -14l15 18l16 18l-19 18l-40 37l-30 29l-12 12h-21h-42h-32h-13z" />
    <glyph glyph-name="Udieresis" unicode="&#xdc;" horiz-adv-x="589" 
d="M81 217h0.00195312c0 -73.333 18 -128.666 54 -165.999c36 -36.667 90 -55 162 -55v0v0c72 0 126 18.333 162 55c36 37.333 54 92.666 54 165.999v72v165v147v119v40v14h-45h-44v-71v-164v-79v-77v-114v-47v0v0c0 -46.667 -10.667 -82 -32 -106
c-20.667 -23.333 -52.334 -35 -95.001 -35v0v0c-42.667 0 -74.334 11.667 -95.001 35c-21.333 24 -32 59.333 -32 106v71v164v146v118v39v14h-25h-20h-44v-72v-165v-80v-77v-116v-47zM145.002 954v-47v-47h47h47v47v47h-47h-47zM360.002 954v-47v-47h47h47v47v47h-47h-47z
" />
    <glyph glyph-name="Yacute" unicode="&#xdd;" horiz-adv-x="465" 
d="M466 774h-47h-22h-25l-17 -44l-40 -103l-36 -91l-29 -73c-4 -10.667 -7 -19 -9 -25l-4 -9l-17 45l-41 102l-35 91l-30 74c-4 10 -7 18 -9 24l-4 9h-46h-47l5 -11l13 -31l40 -94l48 -114l54 -129l24 -56v-43v-99v-49v-46v-70v-28h45h45v43v99v49v46v70v28l16 37l38 90
l25 60l27 63l54 129zM187 822l33 9l76 23l100 29l47 15l-23 37l-22 37l-30 -14l-68 -32c-31.333 -15.333 -61.333 -29.333 -90 -42l-42 -20l9 -21z" />
    <glyph glyph-name="agrave" unicode="&#xe0;" horiz-adv-x="483" 
d="M386 335c-51.333 0 -95.667 -1.99902 -133 -5.99902c-36.667 -4 -65.667 -10.333 -87 -19v0v0c-42 -16 -73.667 -37.667 -95 -65c-20.667 -27.333 -31 -60.666 -31 -99.999v0v0c0 -18.667 3 -36.334 9 -53.001c6 -16 15.333 -30.667 28 -44v0v0
c15.333 -16.667 33.666 -29.334 54.999 -38.001c22 -8.66699 46.667 -13 74 -13v0v0c33.333 0 65 7.33301 95 22s58.333 36.667 85 66v-41v-40h41h41v46v106v51v50v74v30v0v0c0 62 -16.333 108.333 -49 139c-33.333 31.333 -82.666 47 -147.999 47v0v0
c-35.333 0 -66 -4 -92 -12c-18.667 -6 -35.334 -14.333 -50.001 -25c-34 -24.667 -55 -61.667 -63 -111h13h32h41h20v0v0c5.33301 22.667 16.333 40 33 52c16.667 11.333 38.667 17 66 17v0v0c38.667 0 67.334 -8.33301 86.001 -25c19.333 -16 29 -40.333 29 -73v-18v-17v0
v0zM385.999 202.001v-0.000976562c0 -12.667 -4.66699 -26 -14 -40s-23.333 -29 -42 -45v0v0c-17.333 -15.333 -36.333 -27 -57 -35c-20.667 -7.33301 -42.334 -11 -65.001 -11v0v0c-27.333 0 -48 6.66699 -62 20s-21 33 -21 59v0v0c0 23.333 6 43 18 59
c12 16.667 30.333 30.334 55 41.001v0v0c16.667 7.33301 40.334 13 71.001 17c31.333 4 70.333 6.66699 117 8v-36v-37zM100.999 779l-22 -37l-22 -37l33 -10l76 -22l99 -30l47 -14l10 21l10 21l-30 14l-68 32l-90 42z" />
    <glyph glyph-name="aacute" unicode="&#xe1;" horiz-adv-x="483" 
d="M386 335c-51.333 0 -95.667 -1.99902 -133 -5.99902c-36.667 -4 -65.667 -10.333 -87 -19v0v0c-42 -16 -73.667 -37.667 -95 -65c-20.667 -27.333 -31 -60.666 -31 -99.999v0v0c0 -18.667 3 -36.334 9 -53.001c6 -16 15.333 -30.667 28 -44v0v0
c15.333 -16.667 33.666 -29.334 54.999 -38.001c22 -8.66699 46.667 -13 74 -13v0v0c33.333 0 65 7.33301 95 22s58.333 36.667 85 66v-41v-40h41h41v46v106v51v50v74v30v0v0c0 62 -16.333 108.333 -49 139c-18 16.667 -40.333 29 -67 37c-24 6.66699 -51 10 -81 10v0v0
c-60.667 0 -108 -12.333 -142 -37s-55 -61.667 -63 -111h13h32h41h20v0v0c5.33301 22.667 16.333 40 33 52c16.667 11.333 38.667 17 66 17v0v0c38.667 0 67.334 -8.33301 86.001 -25c19.333 -16 29 -40.333 29 -73v-18v-17v0v0zM385.999 202.001v-0.000976562
c0 -12.667 -4.66699 -26 -14 -40s-23.333 -29 -42 -45v0v0c-17.333 -15.333 -36.333 -27 -57 -35c-20.667 -7.33301 -42.334 -11 -65.001 -11v0v0c-27.333 0 -48 6.66699 -62 20s-21 33 -21 59v0v0c0 23.333 6 43 18 59c12 16.667 30.333 30.334 55 41.001v0v0
c16.667 7.33301 40.334 13 71.001 17c31.333 4 70.333 6.66699 117 8v-36v-37zM206.999 621l33 10l76 22l100 30l47 14l-22 37l-23 37l-29 -14l-68 -32l-90 -42l-43 -20l10 -21z" />
    <glyph glyph-name="acircumflex" unicode="&#xe2;" horiz-adv-x="483" 
d="M386 335c-51.333 0 -95.668 -1.99902 -133.001 -5.99902c-36.667 -4 -65.667 -10.333 -87 -19v0v0c-42 -16 -73.667 -37.667 -95 -65c-20.667 -27.333 -31 -60.666 -31 -99.999v0v0c0 -18.667 3 -36.334 9 -53.001c6 -16 15.333 -30.667 28 -44v0v0
c15.333 -16.667 33.666 -29.334 54.999 -38.001c22 -8.66699 46.667 -13 74 -13v0v0c33.333 0 65 7.33301 95 22s58.333 36.667 85 66v-41v-40h41h41v46v106v51v50v74v30v0v0c0 62 -16.333 108.333 -49 139c-33.333 31.333 -82.666 47 -147.999 47v0v0
c-12.667 0 -24.667 -0.666992 -36 -2c-44 -4 -79.333 -15.667 -106 -35c-34 -24.667 -55 -61.667 -63 -111h13h32h41h20v0v0c5.33301 22.667 16.333 40 33 52c16.667 11.333 38.667 17 66 17v0v0c38.667 0 67.334 -8.33301 86.001 -25c19.333 -16 29 -40.333 29 -73v-18v-17
v0v0zM385.998 202.001v-0.000976562c0 -12.667 -4.66699 -26 -14 -40s-23.333 -29 -42 -45v0v0c-17.333 -15.333 -36.333 -27 -57 -35c-20.667 -7.33301 -42.334 -11 -65.001 -11v0v0c-27.333 0 -48 6.66699 -62 20s-21 33 -21 59v0v0c0 23.333 6 43 18 59
c12 16.667 30.333 30.334 55 41.001v0v0c16.667 7.33301 40.334 13 71.001 17c31.333 4 70.333 6.66699 117 8v-36v-37zM216.998 743l-19 -18c-12 -12 -25 -24.333 -39 -37l-29 -29l-13 -12l15 -18l16 -18l16 10l36 22l48 30l23 14l16 -10c10.667 -6.66699 23 -14 37 -22
l48 -30l23 -14l15 18l16 18l-19 18l-39 37l-30 29l-13 12h-20h-42h-32h-14z" />
    <glyph glyph-name="atilde" unicode="&#xe3;" horiz-adv-x="492" 
d="M386 335c-51.333 0 -95.668 -2 -133.001 -6c-36.667 -4 -65.667 -10.333 -87 -19v0v0c-42 -16 -73.667 -37.667 -95 -65c-20.667 -27.333 -31 -60.666 -31 -99.999v0v0c0 -18.667 3 -36.334 9 -53.001c6 -16 15.333 -30.667 28 -44v0v0
c15.333 -16.667 33.666 -29.334 54.999 -38.001c22 -8.66699 46.667 -13 74 -13v0v0c33.333 0 65 7.33301 95 22s58.333 36.667 85 66v-41v-40h41h41v46v106v51v50v74v30v0v0c0 62 -16.333 108.333 -49 139c-33.333 31.333 -82.666 47 -147.999 47v0v0
c-18.667 0 -36 -1 -52 -3c-36.667 -5.33301 -66.667 -16.666 -90 -33.999c-34 -24.667 -55 -61.667 -63 -111h13h32h41h20v0v0c5.33301 22.667 16.333 40 33 52c16.667 11.333 38.667 17 66 17v0v0c38.667 0 67.334 -8.33301 86.001 -25c19.333 -16 29 -40.333 29 -73v-18
v-17v0v0zM385.998 202v-0.000976562c0 -12.667 -4.66699 -26 -14 -40s-23.333 -29 -42 -45v0v0c-17.333 -15.333 -36.333 -27 -57 -35c-20.667 -7.33301 -42.334 -11 -65.001 -11v0v0c-27.333 0 -48 6.66699 -62 20s-21 33 -21 59v0v0c0 23.333 6 43 18 59
c12 16.667 30.333 30.334 55 41.001v0v0c16.667 7.33301 40.334 13 71.001 17c31.333 4 70.333 6.66699 117 8v-36v-37zM96.998 608.999c12.667 14.667 25.334 25.334 38.001 32.001c12.667 7.33301 25 11 37 11v0v0c6.66699 0 13 -0.666992 19 -2
c6.66699 -0.666992 13 -2.33398 19 -5.00098l45 -18l44 -18v0v0c9.33301 -3.33301 18.333 -6 27 -8c0.666992 -0.666992 1.66699 -1 3 -1c7.33301 -1.33301 14.333 -2 21 -2v0v0c23.333 0 45.333 8 66 24c21.333 16.667 41.333 41.334 60 74.001l-16 12l-16 13v0v0
c-12 -14.667 -24.667 -25.667 -38 -33c-12.667 -6.66699 -25.334 -10 -38.001 -10v0v0c-6 0 -12.333 0.333008 -19 1c-6 1.33301 -12 3.33301 -18 6l-44 18l-45 18v0v0c-9.33301 3.33301 -18.333 6 -27 8c-8 2 -16 3 -24 3v0v0c-22.667 0 -44.667 -8.33301 -66 -25
c-20.667 -16.667 -40.667 -41.334 -60 -74.001l16 -12l16 -12v0v0z" />
    <glyph glyph-name="adieresis" unicode="&#xe4;" horiz-adv-x="483" 
d="M386 335c-51.333 0 -95.6689 -1.99902 -133.002 -5.99902c-36.667 -4 -65.667 -10.333 -87 -19v0v0c-42 -16 -73.667 -37.667 -95 -65c-20.667 -27.333 -31 -60.666 -31 -99.999v0v0c0 -18.667 3 -36.334 9 -53.001c6 -16 15.333 -30.667 28 -44v0v0
c15.333 -16.667 33.666 -29.334 54.999 -38.001c22 -8.66699 46.667 -13 74 -13v0v0c33.333 0 65 7.33301 95 22s58.333 36.667 85 66v-41v-40h41h41v46v106v51v50v74v30v0v0c0 62 -16.333 108.333 -49 139c-33.333 31.333 -82.666 47 -147.999 47v0v0
c-36.667 0 -68.667 -4.66699 -96 -14c-17.333 -5.33301 -32.666 -13 -45.999 -23c-34 -24.667 -55 -61.667 -63 -111h13h32h41h20v0v0c5.33301 22.667 16.333 40 33 52c16.667 11.333 38.667 17 66 17v0v0c38.667 0 67.334 -8.33301 86.001 -25
c19.333 -16 29 -40.333 29 -73v-18v-17v0v0zM385.997 202.001v-0.000976562c0 -12.667 -4.66699 -26 -14 -40s-23.333 -29 -42 -45v0v0c-17.333 -15.333 -36.333 -27 -57 -35c-20.667 -7.33301 -42.334 -11 -65.001 -11v0v0c-27.333 0 -48 6.66699 -62 20s-21 33 -21 59v0v0
c0 23.333 6 43 18 59c12 16.667 30.333 30.334 55 41.001v0v0c16.667 7.33301 40.334 13 71.001 17c31.333 4 70.333 6.66699 117 8v-36v-37zM110.997 724v-47v-47h47h47v47v47h-47h-47zM325.997 724v-47v-47h47h47v47v47h-47h-47z" />
    <glyph glyph-name="aring" unicode="&#xe5;" horiz-adv-x="483" 
d="M386 335c-51.333 0 -95.666 -2 -132.999 -6c-36.667 -4 -65.667 -10.333 -87 -19v0v0c-42 -16 -73.667 -37.667 -95 -65c-20.667 -27.333 -31 -60.666 -31 -99.999v0v0c0 -18.667 3 -36.334 9 -53.001c6 -16 15.333 -30.667 28 -44v0v0
c15.333 -16.667 33.666 -29.334 54.999 -38.001c22 -8.66699 46.667 -13 74 -13v0v0c33.333 0 65 7.33301 95 22s58.333 36.667 85 66v-41v-40h41h41v46v106v51v50v74v30v0v0c0 62 -16.333 108.333 -49 139s-80.334 46.334 -143.001 47.001h-5v0v0
c-60.667 0 -108 -12.333 -142 -37s-55 -61.667 -63 -111h13h32h41h20v0v0c5.33301 22.667 16.333 40 33 52c16.667 11.333 38.667 17 66 17v0v0c38.667 0 67.334 -8.33301 86.001 -25c19.333 -16 29 -40.333 29 -73v-18v-17v0v0zM386 202v-0.000976562
c0 -12.667 -4.66699 -26 -14 -40s-23.333 -29 -42 -45v0v0c-17.333 -15.333 -36.333 -27 -57 -35c-20.667 -7.33301 -42.334 -11 -65.001 -11v0v0c-27.333 0 -48 6.66699 -62 20s-21 33 -21 59v0v0c0 23.333 6 43 18 59c12 16.667 30.333 30.334 55 41.001v0v0
c16.667 7.33301 40.334 13 71.001 17c31.333 4 70.333 6.66699 117 8v-36v-37zM279 759.999c-10 0 -19 -1.33203 -27 -3.99902c-8.66699 -3.33301 -16.334 -8.33301 -23.001 -15v0v0c-8 -7.33301 -14 -15.333 -18 -24s-6 -18 -6 -28v0v0c0 -10 1.66699 -19 5 -27
c2.66699 -8 7.33398 -15.667 14.001 -23v0v0c7.33301 -8 15.333 -14 24 -18c6.66699 -2.66699 13.667 -4.33398 21 -5.00098c2.66699 -0.666992 5.66699 -1 9 -1v0v0c8.66699 0 17.334 1.66699 26.001 5c8 3.33301 15.333 8 22 14v0v0c8 7.33301 14 15.333 18 24
c4 9.33301 6 19.333 6 30v0v0c0 9.33301 -1.66699 18 -5 26c-2.66699 8 -7.33398 15.333 -14.001 22v0v0c-7.33301 8 -15.333 14 -24 18s-18 6 -28 6v0v0zM256 714c4 2.66699 8.00098 4.66797 12.001 6.00098s8.33301 1.66602 13 0.999023v0v0
c5.33301 -0.666992 10 -2 14 -4c4 -2.66699 7.33301 -6 10 -10v0v0c2.66699 -3.33301 4.66699 -7 6 -11s1.66602 -8.33301 0.999023 -13v0v0c-0.666992 -5.33301 -2 -10 -4 -14c-2.66699 -4 -6 -7.66699 -10 -11v0v0c-3.33301 -2.66699 -7 -4.33398 -11 -5.00098
c-4 -1.33301 -8.33301 -1.66602 -13 -0.999023v0v0c-5.33301 0 -10 1.33301 -14 4c-4 2 -7.66699 5.33301 -11 10v0v0c-2.66699 3.33301 -4.33398 7 -5.00098 11c-1.33301 4 -2 8.33301 -2 13v0v0c0.666992 5.33301 2.33398 10 5.00098 14c2 4 5 7.33301 9 10v0v0z" />
    <glyph glyph-name="ccedilla" unicode="&#xe7;" horiz-adv-x="482" 
d="M456 375c-12 59.333 -34.999 104.002 -68.999 134.002c-33.333 29.333 -77.666 44 -132.999 44v0v0c-36.667 0 -69.334 -7 -98.001 -21s-53.334 -34.667 -74.001 -62v0v0c-17.333 -23.333 -30.333 -50.666 -39 -81.999c-8.66699 -30.667 -13 -65.334 -13 -104.001v0v0
c0 -40.667 4.33301 -77.334 13 -110.001c8.66699 -33.333 21.667 -62.333 39 -87v0v0c20 -28 44.667 -49 74 -63c25.333 -12.667 54.666 -19.667 87.999 -21h13v0v0c58 0 104 16.667 138 50c34.667 34 57 84.667 67 152h-45h-46v0v0c-8 -40.667 -21.667 -71.334 -41 -92.001
c-18.667 -20.667 -42.667 -31 -72 -31v0v0c-46 0 -81 16 -105 48c-23.333 32 -35 80.333 -35 145v0v0c0 66.667 11.333 116.334 34 149.001c22.667 33.333 56.334 50 101.001 50v0v0c27.333 0 50.333 -8.33301 69 -25c18 -16.667 32 -41.334 42 -74.001h46h46v0v0z
M236.001 4.00195l18 0.000976562h30l-16 -56c4.66699 1.33301 9 2 13 2c4 0.666992 7.66699 1 11 1c24.667 0.666992 43 -5.66602 55 -18.999c12.667 -13.333 19 -29 19 -47c0 -2.66699 -0.333008 -5.33398 -1 -8.00098c0 -2.66699 -0.333008 -5.33398 -1 -8.00098
c-4.66699 -22 -17.667 -42 -39 -60s-51.666 -27 -90.999 -27c-18 0 -37.667 2.33301 -59 7c-21.333 4 -44 11.667 -68 23l24 47c22 -11.333 41.333 -19 58 -23c16.667 -4.66699 31 -7 43 -7c17.333 0 30 4 38 12c8 8.66699 12 18 12 28v1v2
c-0.666992 9.33301 -4.66699 18.333 -12 27c-6.66699 8 -14.667 12 -24 12c-4 0 -8.33301 -1 -13 -3c-4.66699 -1.33301 -9.33398 -3.66602 -14.001 -6.99902c-3.33301 1.33301 -8.33301 3.66602 -15 6.99902l32 96v0z" />
    <glyph glyph-name="egrave" unicode="&#xe8;" horiz-adv-x="506" 
d="M473 256v0.000976562c-1.33301 43.333 -4.33301 80 -9 110s-10.667 53.333 -18 70v0v0c-18 38 -42.667 66.667 -74 86c-30.667 18.667 -68.334 28 -113.001 28v0v0c-30.667 0 -58 -4.66699 -82 -14c-2.66699 -1.33301 -5.66699 -2.66602 -9 -3.99902
c-26 -12 -48.333 -30.333 -67 -55v0v0c-19.333 -24.667 -34 -54 -44 -88c-9.33301 -34 -14 -72.333 -14 -115v0v0c0 -52.667 7.33301 -98.334 22 -137.001s36.667 -70.334 66 -95.001v0v0c18 -15.333 39 -27 63 -35c24 -7.33301 50.667 -11 80 -11v0v0
c58 0 103.667 15.333 137 46c33.333 31.333 54.666 78 63.999 140h-45h-45v0v0c-6.66699 -38.667 -19.667 -67.667 -39 -87s-45.333 -29 -78 -29v0v0c-43.333 0 -76.666 15.667 -99.999 47c-23.333 32 -36.666 79.667 -39.999 143h44h102h91h74h25h9zM132 332.001
c7.33301 47.333 21.667 83 43 107c20.667 23.333 48.667 35 84 35v0v0c35.333 0 63.333 -11.667 84 -35c20.667 -24 33.667 -59.667 39 -107h-33h-74h-97h-46v0v0zM83.001 773.001l-22 -37l-22 -37l33 -9l75 -23l100 -30l47 -14l10 21l10 21l-30 14l-68 32l-90 42z" />
    <glyph glyph-name="eacute" unicode="&#xe9;" horiz-adv-x="502" 
d="M469 256v0.00195312c-1.33301 43.333 -4.33301 80 -9 110s-10.667 53.333 -18 70v0v0c-18 38 -42.667 66.667 -74 86c-9.33301 5.33301 -19.333 10 -30 14c-24.667 9.33301 -52.334 14 -83.001 14v0v0c-34 0 -64.333 -6 -91 -18c-26 -12 -48.333 -30.333 -67 -55v0v0
c-19.333 -24.667 -34 -54 -44 -88c-9.33301 -34 -14 -72.333 -14 -115v0v0c0 -52.667 7.33301 -98.334 22 -137.001s36.667 -70.334 66 -95.001v0v0c18 -15.333 39 -27 63 -35c24 -7.33301 50.667 -11 80 -11v0v0c58 0 103.667 15.333 137 46
c33.333 31.333 54.666 78 63.999 140h-45h-45v0v0c-6.66699 -38.667 -19.667 -67.667 -39 -87s-45.333 -29 -78 -29v0v0c-43.333 0 -76.666 15.667 -99.999 47c-23.333 32 -36.666 79.667 -39.999 143h44h102h91h74h25h9zM128 332.002c7.33301 47.333 21.667 83 43 107
c20.667 23.333 48.667 35 84 35v0v0c35.333 0 63.333 -11.667 84 -35c20.667 -24 33.667 -59.667 39 -107h-33h-74h-97h-46v0v0zM214.001 619.002l33 10l76 23l99 29l48 14l-23 37l-22 37l-30 -14l-68 -31l-90 -43l-42 -20l9 -21z" />
    <glyph glyph-name="ecircumflex" unicode="&#xea;" horiz-adv-x="502" 
d="M469 256v0.00195312c-1.33301 43.333 -4.33301 80 -9 110s-10.667 53.333 -18 70v0v0c-18 38 -42.667 66.667 -74 86c-30.667 18.667 -68.334 28 -113.001 28v0v0c-10.667 0 -21 -0.666992 -31 -2c-22 -2.66699 -42 -8 -60 -16c-26 -12 -48.333 -30.333 -67 -55v0v0
c-19.333 -24.667 -34 -54 -44 -88c-9.33301 -34 -14 -72.333 -14 -115v0v0c0 -52.667 7.33301 -98.334 22 -137.001s36.667 -70.334 66 -95.001v0v0c18 -15.333 39 -27 63 -35c24 -7.33301 50.667 -11 80 -11v0v0c58 0 103.667 15.333 137 46
c33.333 31.333 54.666 78 63.999 140h-45h-45v0v0c-6.66699 -38.667 -19.667 -67.667 -39 -87s-45.333 -29 -78 -29v0v0c-43.333 0 -76.666 15.667 -99.999 47c-23.333 32 -36.666 79.667 -39.999 143h44h102h91h74h25h9zM128 332.002c7.33301 47.333 21.667 83 43 107
c20.667 23.333 48.667 35 84 35v0v0c35.333 0 63.333 -11.667 84 -35c20.667 -24 33.667 -59.667 39 -107h-33h-74h-97h-46v0v0zM203.001 733.002l-13 -13l-30 -28l-39 -38l-18 -17l15 -18l16 -18l23 14l48 29l36 23l16 10l16 -10l37 -23l48 -29l23 -14l15 18l16 18l-13 12
l-30 29c-14 12.667 -27 25 -39 37l-19 18h-14h-32h-42h-20z" />
    <glyph glyph-name="edieresis" unicode="&#xeb;" horiz-adv-x="502" 
d="M469 256v0.00195312c-1.33301 43.333 -4.33301 80 -9 110s-10.667 53.333 -18 70v0v0c-18 38 -42.667 66.667 -74 86c-30.667 18.667 -68.334 28 -113.001 28v0v0c-28.667 0 -54.667 -4.33301 -78 -13c-4.66699 -1.33301 -9 -3 -13 -5c-26 -12 -48.333 -30.333 -67 -55v0
v0c-19.333 -24.667 -34 -54 -44 -88c-9.33301 -34 -14 -72.333 -14 -115v0v0c0 -52.667 7.33301 -98.334 22 -137.001s36.667 -70.334 66 -95.001v0v0c18 -15.333 39 -27 63 -35c24 -7.33301 50.667 -11 80 -11v0v0c58 0 103.667 15.333 137 46
c33.333 31.333 54.666 78 63.999 140h-45h-45v0v0c-6.66699 -38.667 -19.667 -67.667 -39 -87s-45.333 -29 -78 -29v0v0c-43.333 0 -76.666 15.667 -99.999 47c-23.333 32 -36.666 79.667 -39.999 143h44h102h91h74h25h9zM128 332.002c7.33301 47.333 21.667 83 43 107
c20.667 23.333 48.667 35 84 35v0v0c35.333 0 63.333 -11.667 84 -35c20.667 -24 33.667 -59.667 39 -107h-33h-74h-97h-46v0v0zM100.001 743.002v-47v-47h47h47v47v47h-47h-47zM315.001 743.002v-47v-47h47h47v47v47h-47h-47z" />
    <glyph glyph-name="igrave" unicode="&#xec;" horiz-adv-x="305" 
d="M119 4v69v159v77v74v111v45h44h44v-69v-159v-77v-74v-111v-45h-44h-44zM234 713l-10 -21l-10 -21l-33 10c-22 6 -47 13.333 -75 22l-100 30l-47 14l22 37l22 37l43 -20l90 -42l68 -32z" />
    <glyph glyph-name="iacute" unicode="&#xed;" horiz-adv-x="256" 
d="M172 4v69v159v77v74v111v45h-44h-44v-69v-159v-77v-74v-111v-45h44h44zM84 672l33 10c22 6 47 13.333 75 22l100 30l48 14l-23 37l-22 37l-30 -14l-68 -32l-90 -42l-42 -20l9 -21z" />
    <glyph glyph-name="icircumflex" unicode="&#xee;" horiz-adv-x="312" 
d="M198 4v69v159v77v74v111v45h-44h-44v-69v-159v-77v-74v-111v-45h44h44zM102 775l-19 -18l-39 -38l-29 -28l-13 -12l15 -18l16 -18l16 9l36 23l48 29l23 15l16 -10l37 -23l48 -29l23 -14l15 18l16 18l-13 12l-30 28l-39 38l-19 18h-14h-32h-42h-20z" />
    <glyph glyph-name="idieresis" unicode="&#xef;" horiz-adv-x="316" 
d="M203 4v69v159v77v74v111v45h-44h-44v-69v-159v-77v-74v-111v-45h44h44zM4 765v-47v-47h47h47v47v47h-47h-47zM219 765v-47v-47h47h47v47v47h-47h-47z" />
    <glyph glyph-name="ntilde" unicode="&#xf1;" horiz-adv-x="554" 
d="M158 4l0.000976562 39.001v91v119v56v0v0c0 22.667 5 44 15 64s25.333 39 46 57v0v0c14 12.667 29.333 22 46 28s35 9 55 9v0v0c28 0 49.333 -9.33301 64 -28c14.667 -18 22 -45.333 22 -82v-46v-104v-51v-49v-73v-30h42h43v47v107v52v50v75v31v0v0
c0 60 -13.333 105 -40 135s-66.334 45 -119.001 45v0v0c-34 0 -65.333 -8.33301 -94 -25c-29.333 -16.667 -56 -41.334 -80 -74.001v46v46h-43h-42v-69v-159v-77v-74v-111v-45h42h43zM111.001 625.001c12.667 14.667 25.335 25.334 38.002 32.001
c12 7.33301 24.333 11 37 11v0v0c6.66699 0 13 -0.666992 19 -2c6 -0.666992 12.333 -2.33398 19 -5.00098l45 -18l44 -18v0v0c9.33301 -3.33301 18 -6 26 -8c8.66699 -2 17 -3 25 -3v0v0c23.333 0 45.333 8 66 24c21.333 16.667 41.333 41.334 60 74.001l-16 12l-16 13v0v0
c-12.667 -14.667 -25.334 -25.667 -38.001 -33c-12.667 -6.66699 -25.334 -10 -38.001 -10v0v0c-6.66699 0 -13 0.333008 -19 1c-6 1.33301 -12 3.33301 -18 6l-44 18l-45 18v0v0c-9.33301 3.33301 -18.333 6 -27 8s-16.667 3 -24 3v0v0c-22.667 0 -44.667 -8.33301 -66 -25
c-20.667 -16.667 -40.667 -41.334 -60 -74.001l16 -12l16 -12v0v0z" />
    <glyph glyph-name="ograve" unicode="&#xf2;" 
d="M263 546c-32 0 -60.334 -4.00098 -85.001 -12.001c-34 -11.333 -61.333 -30 -82 -56c-37.333 -44.667 -56 -112 -56 -202v0v0c0 -93.333 18.333 -163 55 -209c36 -46.667 90.667 -70 164 -70v0v0c32.667 0 62 5.33301 88 16c26 11.333 48.667 27.666 68 48.999v0v0
c20.667 23.333 36.334 52.333 47.001 87s16 75.667 16 123v0v0c0 40.667 -4 76.334 -12 107.001s-19.667 57.334 -35 80.001v0v0c-20 28.667 -44 50 -72 64c-28 14.667 -60 22 -96 22v0v1zM256.999 465.999c44.667 0 78.001 -16.333 100.001 -49s33 -81.667 33 -147v0v0
c0 -65.333 -11 -114 -33 -146c-22 -32.667 -54.667 -49 -98 -49v0v0c-43.333 0 -76 16.333 -98 49c-22 32 -33 80.667 -33 146v0v0c0 65.333 10.667 114.333 32 147s53.666 49 96.999 49v0v0zM97 779.999l-22 -37l-22 -37l33 -10c22 -6 47.333 -13.333 76 -22l99 -30l47 -14
l10 21l10 21l-30 14l-68 32l-90 42z" />
    <glyph glyph-name="oacute" unicode="&#xf3;" 
d="M263 546c-74.667 0 -130.333 -22.668 -167 -68.001c-37.333 -44.667 -56 -112 -56 -202v0v0c0 -93.333 18.333 -163 55 -209c36 -46.667 90.667 -70 164 -70v0v0c32.667 0 62 5.33301 88 16c26 11.333 48.667 27.666 68 48.999v0v0
c20.667 23.333 36.334 52.333 47.001 87s16 75.667 16 123v0v0c0 40.667 -4 76.334 -12 107.001s-19.667 57.334 -35 80.001v0v0c-20 28.667 -44 50 -72 64c-6.66699 3.33301 -13.334 6.33301 -20.001 9c-22.667 8.66699 -48 13 -76 13v0v1zM257.001 465.999
c44.667 0 78.001 -16.333 100.001 -49s33 -81.667 33 -147v0v0c0 -65.333 -11 -114 -33 -146c-22 -32.667 -54.667 -49 -98 -49v0v0c-43.333 0 -76 16.333 -98 49c-22 32 -33 80.667 -33 146v0v0c0 65.333 10.667 114.333 32 147s53.666 49 96.999 49v0v0zM214.002 613.999
l33 10l76 22l99 30l48 14l-23 37l-22 37l-30 -14l-68 -32l-90 -42l-42 -20l9 -21z" />
    <glyph glyph-name="ocircumflex" unicode="&#xf4;" 
d="M263 546c-12 0 -23.334 -0.667969 -34.001 -2.00098c-58 -6 -102.333 -28 -133 -66c-37.333 -44.667 -56 -112 -56 -202v0v0c0 -93.333 18.333 -163 55 -209c36 -46.667 90.667 -70 164 -70v0v0c32.667 0 62 5.33301 88 16c26 11.333 48.667 27.666 68 48.999v0v0
c20.667 23.333 36.334 52.333 47.001 87s16 75.667 16 123v0v0c0 40.667 -4 76.334 -12 107.001s-19.667 57.334 -35 80.001v0v0c-20 28.667 -44 50 -72 64c-28 14.667 -60 22 -96 22v0v1zM256.999 465.999c44.667 0 78.001 -16.333 100.001 -49s33 -81.667 33 -147v0v0
c0 -65.333 -11 -114 -33 -146c-22 -32.667 -54.667 -49 -98 -49v0v0c-43.333 0 -76 16.333 -98 49c-22 32 -33 80.667 -33 146v0v0c0 65.333 10.667 114.333 32 147s53.666 49 96.999 49v0v0zM210 726.999l-13 -12l-30 -29l-39 -37l-18 -18l15 -18l16 -18l23 14l47 30
c14 8.66699 26.333 16 37 22l16 10l16 -10c10.667 -6 22.667 -13.333 36 -22l49 -30l23 -14l15 18l16 18l-13 13l-30 28l-40 37l-18 18h-14h-32h-42h-20z" />
    <glyph glyph-name="otilde" unicode="&#xf5;" 
d="M263 546c-17.333 0 -33.668 -1.33398 -49.001 -4.00098c-50.667 -8 -90 -29.333 -118 -64c-37.333 -44.667 -56 -112 -56 -202v0v0c0 -93.333 18.333 -163 55 -209c36 -46.667 90.667 -70 164 -70v0v0c32.667 0 62 5.33301 88 16c26 11.333 48.667 27.666 68 48.999v0v0
c20.667 23.333 36.334 52.333 47.001 87s16 75.667 16 123v0v0c0 40.667 -4 76.334 -12 107.001s-19.667 57.334 -35 80.001v0v0c-20 28.667 -44 50 -72 64c-28 14.667 -60 22 -96 22v0v1zM256.998 465.999c44.667 0 78.001 -16.333 100.001 -49s33 -81.667 33 -147v0v0
c0 -65.333 -11 -114 -33 -146c-22 -32.667 -54.667 -49 -98 -49v0v0c-43.333 0 -76 16.333 -98 49c-22 32 -33 80.667 -33 146v0v0c0 65.333 10.667 114.333 32 147s53.666 49 96.999 49v0v0zM86.999 619.999c12.667 14.667 25.335 25.334 38.002 32.001
c12 7.33301 24.333 11 37 11v0v0c6.66699 0 13 -0.666992 19 -2c6 -0.666992 12.333 -2.33398 19 -5.00098l45 -18l44 -18v0v0c9.33301 -3.33301 18 -6 26 -8c4.66699 -1.33301 9 -2 13 -2c4 -0.666992 8 -1 12 -1v0v0c23.333 0 45.333 8.33301 66 25
c21.333 16 41.333 40.333 60 73l-16 13l-16 12v0v0c-12.667 -14.667 -25.334 -25.334 -38.001 -32.001c-12.667 -7.33301 -25.334 -11 -38.001 -11v0v0c-6.66699 0 -13 0.666992 -19 2c-6 0.666992 -12 2.33398 -18 5.00098l-44 18l-45 18v0v0
c-9.33301 3.33301 -18.333 6 -27 8s-16.667 3 -24 3v0v0c-22.667 0 -44.667 -8.33301 -66 -25c-20.667 -16 -40.667 -40.667 -60 -74l16 -12l16 -12v0v0z" />
    <glyph glyph-name="odieresis" unicode="&#xf6;" 
d="M263 546c-32.667 0 -61.667 -4.33496 -87 -13.002c-32.667 -11.333 -59.334 -29.666 -80.001 -54.999c-37.333 -44.667 -56 -112 -56 -202v0v0c0 -93.333 18.333 -163 55 -209c36 -46.667 90.667 -70 164 -70v0v0c32.667 0 62 5.33301 88 16
c26 11.333 48.667 27.666 68 48.999v0v0c20.667 23.333 36.334 52.333 47.001 87s16 75.667 16 123v0v0c0 40.667 -4 76.334 -12 107.001s-19.667 57.334 -35 80.001v0v0c-20 28.667 -44 50 -72 64c-28 14.667 -60 22 -96 22v0v1zM257 465.998
c44.667 0 78.001 -16.333 100.001 -49s33 -81.667 33 -147v0v0c0 -65.333 -11 -114 -33 -146c-22 -32.667 -54.667 -49 -98 -49v0v0c-43.333 0 -76 16.333 -98 49c-22 32 -33 80.667 -33 146v0v0c0 65.333 10.667 114.333 32 147s53.666 49 96.999 49v0v0zM106.001 733.998
v-47v-47h47h47v47v47h-47h-47zM321.001 733.998v-47v-47h47h47v47v47h-47h-47z" />
    <glyph glyph-name="divide" unicode="&#xf7;" horiz-adv-x="1024" 
d="M854 353v36v36h-12h-34h-105h-140h-98h-95h-142h-58v-36v-36h12h34h105h140h180h147h48h18zM512 663c-22.667 0 -39.334 -5.33398 -50.001 -16.001c-11.333 -11.333 -17 -27.666 -17 -48.999v0v0c0 -22.667 5.33301 -39.334 16 -50.001c10.667 -11.333 27 -17 49 -17v0v0
c22 0 38.333 5.33301 49 16c11.333 10.667 17 27 17 49v0v0c0 8.66699 -1.33301 16.667 -4 24c-3.33301 6.66699 -7.66602 13.334 -12.999 20.001v0v0c-6.66699 7.33301 -14 13 -22 17c-8 3.33301 -16.667 5 -26 5v0zM511 245.999
c-22.667 0 -39.334 -5.33398 -50.001 -16.001c-11.333 -11.333 -17 -27.666 -17 -48.999v0v0c0 -22.667 5.33301 -39.334 16 -50.001c10.667 -11.333 27 -17 49 -17v0v0c22 0 38.333 5.33301 49 16c11.333 10.667 17 27 17 49v0v0c0 8.66699 -1.33301 16.667 -4 24
c-3.33301 6.66699 -7.66602 13.334 -12.999 20.001v0v0c-6.66699 7.33301 -14 13 -22 17c-8 3.33301 -16.667 5 -26 5v0z" />
    <glyph glyph-name="ugrave" unicode="&#xf9;" horiz-adv-x="554" 
d="M406 539l0.000976562 -39v-91v-119v-57v0v0c0 -22 -5 -43 -15 -63c-10.667 -20 -26 -39.333 -46 -58v0v0c-14 -12 -29.667 -21 -47 -27c-16.667 -6 -34.667 -9 -54 -9v0v0c-28.667 0 -50.334 9 -65.001 27c-14 18 -21 45.333 -21 82v46v105v50v49v74v30h-35h-8h-42v-47
v-107v-52v-50v-75v-31v0v0c0 -60 13 -105 39 -135c26.667 -30 66.667 -45 120 -45v0v0c33.333 0 64.333 8.33301 93 25c29.333 16 56.333 40.333 81 73v-45v-46h42h43v69v159v77v74v111v45h-43h-42zM124.001 777l-22 -37l-22 -37l47 -14l99 -30l76 -22l33 -10l10 21l10 21
l-30 14l-68 32l-90 42z" />
    <glyph glyph-name="uacute" unicode="&#xfa;" horiz-adv-x="554" 
d="M406 539l0.000976562 -39v-91v-119v-57v0v0c0 -22 -5 -43 -15 -63c-10.667 -20 -26 -39.333 -46 -58v0v0c-14 -12 -29.667 -21 -47 -27c-16.667 -6 -34.667 -9 -54 -9v0v0c-28.667 0 -50.334 9 -65.001 27c-14 18 -21 45.333 -21 82v46v105v50v49v74v30h-43h-42v-47v-107
v-52v-50v-75v-31v0v0c0 -60 13 -105 39 -135c26.667 -30 66.667 -45 120 -45v0v0c33.333 0 64.333 8.33301 93 25c29.333 16 56.333 40.333 81 73v-45v-46h42h43v69v159v77v74v111v45h-43h-11h-31zM226.001 620l33 9l76 23l99 29l48 15l-23 37l-22 37l-30 -14l-68 -32
c-31.333 -15.333 -61.333 -29.333 -90 -42l-42 -20l9 -21z" />
    <glyph glyph-name="ucircumflex" unicode="&#xfb;" horiz-adv-x="554" 
d="M406 539l0.000976562 -39v-91v-119v-57v0v0c0 -22 -5 -43 -15 -63c-10.667 -20 -26 -39.333 -46 -58v0v0c-14 -12 -29.667 -21 -47 -27c-16.667 -6 -34.667 -9 -54 -9v0v0c-28.667 0 -50.334 9 -65.001 27c-14 18 -21 45.333 -21 82v46v105v50v49v74v30h-43h-42v-47v-107
v-52v-50v-75v-31v0v0c0 -60 13 -105 39 -135c26.667 -30 66.667 -45 120 -45v0v0c33.333 0 64.333 8.33301 93 25c29.333 16 56.333 40.333 81 73v-45v-46h42h43v69v159v77v74v111v45h-43h-42zM227.001 738l-13 -12c-8.66699 -8.66699 -18.667 -18 -30 -28l-39 -38l-18 -18
l15 -18l16 -18l23 15l47 29l37 23l16 9l16 -9l36 -23l49 -30l23 -14l15 18l16 18l-13 13l-30 28l-40 37l-18 18h-14h-32h-42h-20z" />
    <glyph glyph-name="udieresis" unicode="&#xfc;" horiz-adv-x="554" 
d="M406 539l0.000976562 -39v-91v-119v-57v0v0c0 -22 -5 -43 -15 -63c-10.667 -20 -26 -39.333 -46 -58v0v0c-14 -12 -29.667 -21 -47 -27c-16.667 -6 -34.667 -9 -54 -9v0v0c-28.667 0 -50.334 9 -65.001 27c-14 18 -21 45.333 -21 82v46v105v50v49v74v30h-28h-15h-42v-47
v-107v-52v-50v-75v-31v0v0c0 -60 13 -105 39 -135c26.667 -30 66.667 -45 120 -45v0v0c33.333 0 64.333 8.33301 93 25c29.333 16 56.333 40.333 81 73v-45v-46h42h43v69v159v77v74v111v45h-43h-42zM131.001 723v-47v-47h47h47v47v47h-47h-47zM346.001 723v-47v-47h47h47v47
v47h-47h-47z" />
    <glyph glyph-name="yacute" unicode="&#xfd;" horiz-adv-x="475" 
d="M112 539l-48 0.000976562h-48l24 -58l56 -133l27 -64l26 -62l39 -93l15 -38l-11 -27c-6.66699 -18.667 -15 -40 -25 -64l-33 -82l-16 -40h46h46l5 12l12 32l39 102l52 135l36 95l36 92l52 137l21 56h-47h-6h-42l-16 -44l-36 -100l-18 -48
c-5.33301 -16.667 -11 -32.334 -17 -47.001l-25 -70l-11 -29l-17 44l-39 100c-6.66699 16 -13 32 -19 48l-19 47l-27 70zM200 648.001l33 9l76 23l99 29l48 15l-23 37l-22 37l-30 -14l-68 -32c-31.333 -15.333 -61.333 -29.333 -90 -42l-42 -20l9 -21z" />
    <glyph glyph-name="ydieresis" unicode="&#xff;" horiz-adv-x="475" 
d="M112 539l-21 0.000976562h-27h-48l24 -58l56 -133l27 -64l26 -62l39 -93l15 -38l-11 -27c-6.66699 -18.667 -15 -40 -25 -64l-33 -82l-16 -40h46h46l5 12l12 32l39 102l52 135l36 95l36 92l52 137l21 56h-47h-48l-16 -44l-36 -100l-18 -48
c-5.33301 -16.667 -11 -32.334 -17 -47.001l-25 -70l-11 -29l-17 44l-39 100c-6.66699 16 -13 32 -19 48l-19 47l-27 70zM90 737.001v-47v-47h29h18h47v47v47h-47h-47zM305 737.001v-47v-47h47h47v47v47h-47h-47z" />
    <glyph glyph-name=".notdef_2" horiz-adv-x="543" 
d="M51 102h307v566h-307v-566zM0 719h410v-668h-410v668z" />
  </font>
</defs>
</svg>
